M48
; DRILL file {KiCad 5.1.5-52549c5~84~ubuntu18.04.1} date Sun 02 Feb 2020 03:04:05 PM CET
; FORMAT={-:-/ absolute / inch / decimal}
; #@! TF.CreationDate,2020-02-02T15:04:05+01:00
; #@! TF.GenerationSoftware,Kicad,Pcbnew,5.1.5-52549c5~84~ubuntu18.04.1
; #@! TF.FileFunction,Plated,1,2,PTH
FMAT,2
INCH
T1C0.0157
T2C0.0300
T3C0.0315
T4C0.0374
T5C0.0394
T6C0.0598
T7C0.1181
%
G90
G05
T1
X4.5Y-4.8
X4.5085Y-2.9293
X4.55Y-4.9
X4.7403Y-3.09
X4.75Y-2.925
X4.75Y-3.175
X4.9113Y-2.7848
X4.9952Y-3.0287
X5.175Y-3.1
X5.2476Y-2.8511
X5.875Y-2.9
X6.1849Y-2.9643
X6.375Y-2.85
T2
X5.45Y-2.1
X5.45Y-2.2
X5.45Y-2.3
X5.45Y-2.4
X5.45Y-2.5
X5.45Y-2.6
X5.45Y-2.7
X5.45Y-2.8
X5.45Y-2.9
X5.45Y-3.0
X5.55Y-2.1
X5.55Y-2.2
X5.55Y-2.3
X5.55Y-2.4
X5.55Y-2.5
X5.55Y-2.6
X5.55Y-2.7
X5.55Y-2.8
X5.55Y-2.9
X5.55Y-3.0
X6.45Y-2.1
X6.45Y-2.2
X6.45Y-2.3
X6.45Y-2.4
X6.45Y-2.5
X6.45Y-2.6
X6.45Y-2.7
X6.45Y-2.8
X6.45Y-2.9
X6.45Y-3.0
X6.55Y-2.1
X6.55Y-2.2
X6.55Y-2.3
X6.55Y-2.4
X6.55Y-2.5
X6.55Y-2.6
X6.55Y-2.7
X6.55Y-2.8
X6.55Y-2.9
X6.55Y-3.0
X3.7Y-3.25
X3.7Y-3.35
X3.7Y-3.45
X3.7Y-3.55
X3.7Y-3.65
X3.7Y-3.75
X3.7Y-3.85
X3.7Y-3.95
X3.7Y-4.05
X3.7Y-4.15
X4.6Y-4.7
X4.7Y-3.3
X4.7Y-4.7
X4.8Y-3.3
X4.8Y-4.7
X4.9Y-3.3
X4.9Y-4.7
X5.0Y-3.3
X5.0Y-4.7
X5.1Y-4.7
T3
X3.8Y-4.65
X3.9Y-4.65
X4.0Y-4.65
X4.1Y-4.65
T4
X6.875Y-4.3
X6.9734Y-4.3
X7.0719Y-4.3
X7.1703Y-4.3
X6.875Y-3.875
X6.9734Y-3.875
X7.0719Y-3.875
X7.1703Y-3.875
X5.6Y-5.25
X5.6984Y-5.25
X5.7969Y-5.25
X3.15Y-4.6
X3.15Y-4.6984
X3.15Y-4.7969
X4.3Y-5.25
X4.3984Y-5.25
X4.4969Y-5.25
X6.85Y-2.225
X6.9484Y-2.225
X7.0469Y-2.225
X7.1453Y-2.225
X6.8531Y-3.45
X6.9516Y-3.45
X7.05Y-3.45
X7.1484Y-3.45
X6.2Y-5.25
X6.2984Y-5.25
X6.3969Y-5.25
X6.4953Y-5.25
X6.5937Y-5.25
X6.6921Y-5.25
X6.9031Y-4.725
X7.0016Y-4.725
X7.1Y-4.725
X3.15Y-3.1031
X3.15Y-3.2016
X3.15Y-3.3
X3.15Y-3.6
X3.15Y-3.6984
X3.15Y-3.7969
X6.85Y-2.65
X6.9484Y-2.65
X7.0469Y-2.65
X7.1453Y-2.65
X3.15Y-4.1
X3.15Y-4.1984
X3.15Y-4.2969
X3.6031Y-5.25
X3.7016Y-5.25
X3.8Y-5.25
X3.8984Y-5.25
X6.85Y-3.05
X6.9484Y-3.05
X7.0469Y-3.05
X7.1453Y-3.05
X5.0Y-5.25
X5.0984Y-5.25
X5.1969Y-5.25
T5
X4.1Y-1.9
X4.1Y-2.0
X6.2758Y-4.7
X6.575Y-4.7
X4.4Y-1.9
X4.4Y-2.0
T6
X4.7Y-1.95
X4.9Y-1.95
X3.6Y-1.95
X3.8Y-1.95
T7
X4.225Y-3.2
X4.225Y-4.175
T0
M30
