G04 #@! TF.GenerationSoftware,KiCad,Pcbnew,5.1.5-52549c5~84~ubuntu18.04.1*
G04 #@! TF.CreationDate,2020-02-02T15:04:15+01:00*
G04 #@! TF.ProjectId,autopool,6175746f-706f-46f6-9c2e-6b696361645f,rev?*
G04 #@! TF.SameCoordinates,Original*
G04 #@! TF.FileFunction,Soldermask,Bot*
G04 #@! TF.FilePolarity,Negative*
%FSLAX46Y46*%
G04 Gerber Fmt 4.6, Leading zero omitted, Abs format (unit mm)*
G04 Created by KiCad (PCBNEW 5.1.5-52549c5~84~ubuntu18.04.1) date 2020-02-02 15:04:15*
%MOMM*%
%LPD*%
G04 APERTURE LIST*
%ADD10C,0.100000*%
G04 APERTURE END LIST*
D10*
G36*
X180982007Y-132503582D02*
G01*
X181382563Y-132669498D01*
X181382565Y-132669499D01*
X181743056Y-132910371D01*
X182049629Y-133216944D01*
X182290501Y-133577435D01*
X182290502Y-133577437D01*
X182456418Y-133977993D01*
X182541000Y-134403219D01*
X182541000Y-134836781D01*
X182456418Y-135262007D01*
X182290502Y-135662563D01*
X182290501Y-135662565D01*
X182049629Y-136023056D01*
X181743056Y-136329629D01*
X181382565Y-136570501D01*
X181382564Y-136570502D01*
X181382563Y-136570502D01*
X180982007Y-136736418D01*
X180556781Y-136821000D01*
X180123219Y-136821000D01*
X179697993Y-136736418D01*
X179297437Y-136570502D01*
X179297436Y-136570502D01*
X179297435Y-136570501D01*
X178936944Y-136329629D01*
X178630371Y-136023056D01*
X178389499Y-135662565D01*
X178389498Y-135662563D01*
X178223582Y-135262007D01*
X178139000Y-134836781D01*
X178139000Y-134403219D01*
X178223582Y-133977993D01*
X178389498Y-133577437D01*
X178389499Y-133577435D01*
X178630371Y-133216944D01*
X178936944Y-132910371D01*
X179297435Y-132669499D01*
X179297437Y-132669498D01*
X179697993Y-132503582D01*
X180123219Y-132419000D01*
X180556781Y-132419000D01*
X180982007Y-132503582D01*
G37*
G36*
X81922007Y-132503582D02*
G01*
X82322563Y-132669498D01*
X82322565Y-132669499D01*
X82683056Y-132910371D01*
X82989629Y-133216944D01*
X83230501Y-133577435D01*
X83230502Y-133577437D01*
X83396418Y-133977993D01*
X83481000Y-134403219D01*
X83481000Y-134836781D01*
X83396418Y-135262007D01*
X83230502Y-135662563D01*
X83230501Y-135662565D01*
X82989629Y-136023056D01*
X82683056Y-136329629D01*
X82322565Y-136570501D01*
X82322564Y-136570502D01*
X82322563Y-136570502D01*
X81922007Y-136736418D01*
X81496781Y-136821000D01*
X81063219Y-136821000D01*
X80637993Y-136736418D01*
X80237437Y-136570502D01*
X80237436Y-136570502D01*
X80237435Y-136570501D01*
X79876944Y-136329629D01*
X79570371Y-136023056D01*
X79329499Y-135662565D01*
X79329498Y-135662563D01*
X79163582Y-135262007D01*
X79079000Y-134836781D01*
X79079000Y-134403219D01*
X79163582Y-133977993D01*
X79329498Y-133577437D01*
X79329499Y-133577435D01*
X79570371Y-133216944D01*
X79876944Y-132910371D01*
X80237435Y-132669499D01*
X80237437Y-132669498D01*
X80637993Y-132503582D01*
X81063219Y-132419000D01*
X81496781Y-132419000D01*
X81922007Y-132503582D01*
G37*
G36*
X99196626Y-132337037D02*
G01*
X99366465Y-132388557D01*
X99366467Y-132388558D01*
X99522989Y-132472221D01*
X99660186Y-132584814D01*
X99729683Y-132669498D01*
X99772778Y-132722009D01*
X99856443Y-132878534D01*
X99907963Y-133048373D01*
X99921000Y-133180742D01*
X99921000Y-133519257D01*
X99907963Y-133651626D01*
X99856443Y-133821466D01*
X99772778Y-133977991D01*
X99772777Y-133977992D01*
X99660186Y-134115186D01*
X99565250Y-134193097D01*
X99522991Y-134227778D01*
X99366466Y-134311443D01*
X99196627Y-134362963D01*
X99020000Y-134380359D01*
X98843374Y-134362963D01*
X98673535Y-134311443D01*
X98517010Y-134227778D01*
X98379815Y-134115185D01*
X98267222Y-133977991D01*
X98183557Y-133821466D01*
X98132037Y-133651627D01*
X98119000Y-133519258D01*
X98119000Y-133180743D01*
X98132037Y-133048374D01*
X98183557Y-132878535D01*
X98267222Y-132722010D01*
X98267223Y-132722009D01*
X98379814Y-132584814D01*
X98481271Y-132501552D01*
X98517009Y-132472222D01*
X98673534Y-132388557D01*
X98843373Y-132337037D01*
X99020000Y-132319641D01*
X99196626Y-132337037D01*
G37*
G36*
X94196626Y-132337037D02*
G01*
X94366465Y-132388557D01*
X94366467Y-132388558D01*
X94522989Y-132472221D01*
X94660186Y-132584814D01*
X94729683Y-132669498D01*
X94772778Y-132722009D01*
X94856443Y-132878534D01*
X94907963Y-133048373D01*
X94921000Y-133180742D01*
X94921000Y-133519257D01*
X94907963Y-133651626D01*
X94856443Y-133821466D01*
X94772778Y-133977991D01*
X94772777Y-133977992D01*
X94660186Y-134115186D01*
X94565250Y-134193097D01*
X94522991Y-134227778D01*
X94366466Y-134311443D01*
X94196627Y-134362963D01*
X94020000Y-134380359D01*
X93843374Y-134362963D01*
X93673535Y-134311443D01*
X93517010Y-134227778D01*
X93379815Y-134115185D01*
X93267222Y-133977991D01*
X93183557Y-133821466D01*
X93132037Y-133651627D01*
X93119000Y-133519258D01*
X93119000Y-133180743D01*
X93132037Y-133048374D01*
X93183557Y-132878535D01*
X93267222Y-132722010D01*
X93267223Y-132722009D01*
X93379814Y-132584814D01*
X93481271Y-132501552D01*
X93517009Y-132472222D01*
X93673534Y-132388557D01*
X93843373Y-132337037D01*
X94020000Y-132319641D01*
X94196626Y-132337037D01*
G37*
G36*
X170156626Y-132337037D02*
G01*
X170326465Y-132388557D01*
X170326467Y-132388558D01*
X170482989Y-132472221D01*
X170620186Y-132584814D01*
X170689683Y-132669498D01*
X170732778Y-132722009D01*
X170816443Y-132878534D01*
X170867963Y-133048373D01*
X170881000Y-133180742D01*
X170881000Y-133519257D01*
X170867963Y-133651626D01*
X170816443Y-133821466D01*
X170732778Y-133977991D01*
X170732777Y-133977992D01*
X170620186Y-134115186D01*
X170525250Y-134193097D01*
X170482991Y-134227778D01*
X170326466Y-134311443D01*
X170156627Y-134362963D01*
X169980000Y-134380359D01*
X169803374Y-134362963D01*
X169633535Y-134311443D01*
X169477010Y-134227778D01*
X169339815Y-134115185D01*
X169227222Y-133977991D01*
X169143557Y-133821466D01*
X169092037Y-133651627D01*
X169079000Y-133519258D01*
X169079000Y-133180743D01*
X169092037Y-133048374D01*
X169143557Y-132878535D01*
X169227222Y-132722010D01*
X169227223Y-132722009D01*
X169339814Y-132584814D01*
X169441271Y-132501552D01*
X169477009Y-132472222D01*
X169633534Y-132388557D01*
X169803373Y-132337037D01*
X169980000Y-132319641D01*
X170156626Y-132337037D01*
G37*
G36*
X167656626Y-132337037D02*
G01*
X167826465Y-132388557D01*
X167826467Y-132388558D01*
X167982989Y-132472221D01*
X168120186Y-132584814D01*
X168189683Y-132669498D01*
X168232778Y-132722009D01*
X168316443Y-132878534D01*
X168367963Y-133048373D01*
X168381000Y-133180742D01*
X168381000Y-133519257D01*
X168367963Y-133651626D01*
X168316443Y-133821466D01*
X168232778Y-133977991D01*
X168232777Y-133977992D01*
X168120186Y-134115186D01*
X168025250Y-134193097D01*
X167982991Y-134227778D01*
X167826466Y-134311443D01*
X167656627Y-134362963D01*
X167480000Y-134380359D01*
X167303374Y-134362963D01*
X167133535Y-134311443D01*
X166977010Y-134227778D01*
X166839815Y-134115185D01*
X166727222Y-133977991D01*
X166643557Y-133821466D01*
X166592037Y-133651627D01*
X166579000Y-133519258D01*
X166579000Y-133180743D01*
X166592037Y-133048374D01*
X166643557Y-132878535D01*
X166727222Y-132722010D01*
X166727223Y-132722009D01*
X166839814Y-132584814D01*
X166941271Y-132501552D01*
X166977009Y-132472222D01*
X167133534Y-132388557D01*
X167303373Y-132337037D01*
X167480000Y-132319641D01*
X167656626Y-132337037D01*
G37*
G36*
X165156626Y-132337037D02*
G01*
X165326465Y-132388557D01*
X165326467Y-132388558D01*
X165482989Y-132472221D01*
X165620186Y-132584814D01*
X165689683Y-132669498D01*
X165732778Y-132722009D01*
X165816443Y-132878534D01*
X165867963Y-133048373D01*
X165881000Y-133180742D01*
X165881000Y-133519257D01*
X165867963Y-133651626D01*
X165816443Y-133821466D01*
X165732778Y-133977991D01*
X165732777Y-133977992D01*
X165620186Y-134115186D01*
X165525250Y-134193097D01*
X165482991Y-134227778D01*
X165326466Y-134311443D01*
X165156627Y-134362963D01*
X164980000Y-134380359D01*
X164803374Y-134362963D01*
X164633535Y-134311443D01*
X164477010Y-134227778D01*
X164339815Y-134115185D01*
X164227222Y-133977991D01*
X164143557Y-133821466D01*
X164092037Y-133651627D01*
X164079000Y-133519258D01*
X164079000Y-133180743D01*
X164092037Y-133048374D01*
X164143557Y-132878535D01*
X164227222Y-132722010D01*
X164227223Y-132722009D01*
X164339814Y-132584814D01*
X164441271Y-132501552D01*
X164477009Y-132472222D01*
X164633534Y-132388557D01*
X164803373Y-132337037D01*
X164980000Y-132319641D01*
X165156626Y-132337037D01*
G37*
G36*
X162656626Y-132337037D02*
G01*
X162826465Y-132388557D01*
X162826467Y-132388558D01*
X162982989Y-132472221D01*
X163120186Y-132584814D01*
X163189683Y-132669498D01*
X163232778Y-132722009D01*
X163316443Y-132878534D01*
X163367963Y-133048373D01*
X163381000Y-133180742D01*
X163381000Y-133519257D01*
X163367963Y-133651626D01*
X163316443Y-133821466D01*
X163232778Y-133977991D01*
X163232777Y-133977992D01*
X163120186Y-134115186D01*
X163025250Y-134193097D01*
X162982991Y-134227778D01*
X162826466Y-134311443D01*
X162656627Y-134362963D01*
X162480000Y-134380359D01*
X162303374Y-134362963D01*
X162133535Y-134311443D01*
X161977010Y-134227778D01*
X161839815Y-134115185D01*
X161727222Y-133977991D01*
X161643557Y-133821466D01*
X161592037Y-133651627D01*
X161579000Y-133519258D01*
X161579000Y-133180743D01*
X161592037Y-133048374D01*
X161643557Y-132878535D01*
X161727222Y-132722010D01*
X161727223Y-132722009D01*
X161839814Y-132584814D01*
X161941271Y-132501552D01*
X161977009Y-132472222D01*
X162133534Y-132388557D01*
X162303373Y-132337037D01*
X162480000Y-132319641D01*
X162656626Y-132337037D01*
G37*
G36*
X160156626Y-132337037D02*
G01*
X160326465Y-132388557D01*
X160326467Y-132388558D01*
X160482989Y-132472221D01*
X160620186Y-132584814D01*
X160689683Y-132669498D01*
X160732778Y-132722009D01*
X160816443Y-132878534D01*
X160867963Y-133048373D01*
X160881000Y-133180742D01*
X160881000Y-133519257D01*
X160867963Y-133651626D01*
X160816443Y-133821466D01*
X160732778Y-133977991D01*
X160732777Y-133977992D01*
X160620186Y-134115186D01*
X160525250Y-134193097D01*
X160482991Y-134227778D01*
X160326466Y-134311443D01*
X160156627Y-134362963D01*
X159980000Y-134380359D01*
X159803374Y-134362963D01*
X159633535Y-134311443D01*
X159477010Y-134227778D01*
X159339815Y-134115185D01*
X159227222Y-133977991D01*
X159143557Y-133821466D01*
X159092037Y-133651627D01*
X159079000Y-133519258D01*
X159079000Y-133180743D01*
X159092037Y-133048374D01*
X159143557Y-132878535D01*
X159227222Y-132722010D01*
X159227223Y-132722009D01*
X159339814Y-132584814D01*
X159441271Y-132501552D01*
X159477009Y-132472222D01*
X159633534Y-132388557D01*
X159803373Y-132337037D01*
X159980000Y-132319641D01*
X160156626Y-132337037D01*
G37*
G36*
X96696626Y-132337037D02*
G01*
X96866465Y-132388557D01*
X96866467Y-132388558D01*
X97022989Y-132472221D01*
X97160186Y-132584814D01*
X97229683Y-132669498D01*
X97272778Y-132722009D01*
X97356443Y-132878534D01*
X97407963Y-133048373D01*
X97421000Y-133180742D01*
X97421000Y-133519257D01*
X97407963Y-133651626D01*
X97356443Y-133821466D01*
X97272778Y-133977991D01*
X97272777Y-133977992D01*
X97160186Y-134115186D01*
X97065250Y-134193097D01*
X97022991Y-134227778D01*
X96866466Y-134311443D01*
X96696627Y-134362963D01*
X96520000Y-134380359D01*
X96343374Y-134362963D01*
X96173535Y-134311443D01*
X96017010Y-134227778D01*
X95879815Y-134115185D01*
X95767222Y-133977991D01*
X95683557Y-133821466D01*
X95632037Y-133651627D01*
X95619000Y-133519258D01*
X95619000Y-133180743D01*
X95632037Y-133048374D01*
X95683557Y-132878535D01*
X95767222Y-132722010D01*
X95767223Y-132722009D01*
X95879814Y-132584814D01*
X95981271Y-132501552D01*
X96017009Y-132472222D01*
X96173534Y-132388557D01*
X96343373Y-132337037D01*
X96520000Y-132319641D01*
X96696626Y-132337037D01*
G37*
G36*
X129676626Y-132337037D02*
G01*
X129846465Y-132388557D01*
X129846467Y-132388558D01*
X130002989Y-132472221D01*
X130140186Y-132584814D01*
X130209683Y-132669498D01*
X130252778Y-132722009D01*
X130336443Y-132878534D01*
X130387963Y-133048373D01*
X130401000Y-133180742D01*
X130401000Y-133519257D01*
X130387963Y-133651626D01*
X130336443Y-133821466D01*
X130252778Y-133977991D01*
X130252777Y-133977992D01*
X130140186Y-134115186D01*
X130045250Y-134193097D01*
X130002991Y-134227778D01*
X129846466Y-134311443D01*
X129676627Y-134362963D01*
X129500000Y-134380359D01*
X129323374Y-134362963D01*
X129153535Y-134311443D01*
X128997010Y-134227778D01*
X128859815Y-134115185D01*
X128747222Y-133977991D01*
X128663557Y-133821466D01*
X128612037Y-133651627D01*
X128599000Y-133519258D01*
X128599000Y-133180743D01*
X128612037Y-133048374D01*
X128663557Y-132878535D01*
X128747222Y-132722010D01*
X128747223Y-132722009D01*
X128859814Y-132584814D01*
X128961271Y-132501552D01*
X128997009Y-132472222D01*
X129153534Y-132388557D01*
X129323373Y-132337037D01*
X129500000Y-132319641D01*
X129676626Y-132337037D01*
G37*
G36*
X147416626Y-132337037D02*
G01*
X147586465Y-132388557D01*
X147586467Y-132388558D01*
X147742989Y-132472221D01*
X147880186Y-132584814D01*
X147949683Y-132669498D01*
X147992778Y-132722009D01*
X148076443Y-132878534D01*
X148127963Y-133048373D01*
X148141000Y-133180742D01*
X148141000Y-133519257D01*
X148127963Y-133651626D01*
X148076443Y-133821466D01*
X147992778Y-133977991D01*
X147992777Y-133977992D01*
X147880186Y-134115186D01*
X147785250Y-134193097D01*
X147742991Y-134227778D01*
X147586466Y-134311443D01*
X147416627Y-134362963D01*
X147240000Y-134380359D01*
X147063374Y-134362963D01*
X146893535Y-134311443D01*
X146737010Y-134227778D01*
X146599815Y-134115185D01*
X146487222Y-133977991D01*
X146403557Y-133821466D01*
X146352037Y-133651627D01*
X146339000Y-133519258D01*
X146339000Y-133180743D01*
X146352037Y-133048374D01*
X146403557Y-132878535D01*
X146487222Y-132722010D01*
X146487223Y-132722009D01*
X146599814Y-132584814D01*
X146701271Y-132501552D01*
X146737009Y-132472222D01*
X146893534Y-132388557D01*
X147063373Y-132337037D01*
X147240000Y-132319641D01*
X147416626Y-132337037D01*
G37*
G36*
X144916626Y-132337037D02*
G01*
X145086465Y-132388557D01*
X145086467Y-132388558D01*
X145242989Y-132472221D01*
X145380186Y-132584814D01*
X145449683Y-132669498D01*
X145492778Y-132722009D01*
X145576443Y-132878534D01*
X145627963Y-133048373D01*
X145641000Y-133180742D01*
X145641000Y-133519257D01*
X145627963Y-133651626D01*
X145576443Y-133821466D01*
X145492778Y-133977991D01*
X145492777Y-133977992D01*
X145380186Y-134115186D01*
X145285250Y-134193097D01*
X145242991Y-134227778D01*
X145086466Y-134311443D01*
X144916627Y-134362963D01*
X144740000Y-134380359D01*
X144563374Y-134362963D01*
X144393535Y-134311443D01*
X144237010Y-134227778D01*
X144099815Y-134115185D01*
X143987222Y-133977991D01*
X143903557Y-133821466D01*
X143852037Y-133651627D01*
X143839000Y-133519258D01*
X143839000Y-133180743D01*
X143852037Y-133048374D01*
X143903557Y-132878535D01*
X143987222Y-132722010D01*
X143987223Y-132722009D01*
X144099814Y-132584814D01*
X144201271Y-132501552D01*
X144237009Y-132472222D01*
X144393534Y-132388557D01*
X144563373Y-132337037D01*
X144740000Y-132319641D01*
X144916626Y-132337037D01*
G37*
G36*
X114396626Y-132337037D02*
G01*
X114566465Y-132388557D01*
X114566467Y-132388558D01*
X114722989Y-132472221D01*
X114860186Y-132584814D01*
X114929683Y-132669498D01*
X114972778Y-132722009D01*
X115056443Y-132878534D01*
X115107963Y-133048373D01*
X115121000Y-133180742D01*
X115121000Y-133519257D01*
X115107963Y-133651626D01*
X115056443Y-133821466D01*
X114972778Y-133977991D01*
X114972777Y-133977992D01*
X114860186Y-134115186D01*
X114765250Y-134193097D01*
X114722991Y-134227778D01*
X114566466Y-134311443D01*
X114396627Y-134362963D01*
X114220000Y-134380359D01*
X114043374Y-134362963D01*
X113873535Y-134311443D01*
X113717010Y-134227778D01*
X113579815Y-134115185D01*
X113467222Y-133977991D01*
X113383557Y-133821466D01*
X113332037Y-133651627D01*
X113319000Y-133519258D01*
X113319000Y-133180743D01*
X113332037Y-133048374D01*
X113383557Y-132878535D01*
X113467222Y-132722010D01*
X113467223Y-132722009D01*
X113579814Y-132584814D01*
X113681271Y-132501552D01*
X113717009Y-132472222D01*
X113873534Y-132388557D01*
X114043373Y-132337037D01*
X114220000Y-132319641D01*
X114396626Y-132337037D01*
G37*
G36*
X111896626Y-132337037D02*
G01*
X112066465Y-132388557D01*
X112066467Y-132388558D01*
X112222989Y-132472221D01*
X112360186Y-132584814D01*
X112429683Y-132669498D01*
X112472778Y-132722009D01*
X112556443Y-132878534D01*
X112607963Y-133048373D01*
X112621000Y-133180742D01*
X112621000Y-133519257D01*
X112607963Y-133651626D01*
X112556443Y-133821466D01*
X112472778Y-133977991D01*
X112472777Y-133977992D01*
X112360186Y-134115186D01*
X112265250Y-134193097D01*
X112222991Y-134227778D01*
X112066466Y-134311443D01*
X111896627Y-134362963D01*
X111720000Y-134380359D01*
X111543374Y-134362963D01*
X111373535Y-134311443D01*
X111217010Y-134227778D01*
X111079815Y-134115185D01*
X110967222Y-133977991D01*
X110883557Y-133821466D01*
X110832037Y-133651627D01*
X110819000Y-133519258D01*
X110819000Y-133180743D01*
X110832037Y-133048374D01*
X110883557Y-132878535D01*
X110967222Y-132722010D01*
X110967223Y-132722009D01*
X111079814Y-132584814D01*
X111181271Y-132501552D01*
X111217009Y-132472222D01*
X111373534Y-132388557D01*
X111543373Y-132337037D01*
X111720000Y-132319641D01*
X111896626Y-132337037D01*
G37*
G36*
X132176626Y-132337037D02*
G01*
X132346465Y-132388557D01*
X132346467Y-132388558D01*
X132502989Y-132472221D01*
X132640186Y-132584814D01*
X132709683Y-132669498D01*
X132752778Y-132722009D01*
X132836443Y-132878534D01*
X132887963Y-133048373D01*
X132901000Y-133180742D01*
X132901000Y-133519257D01*
X132887963Y-133651626D01*
X132836443Y-133821466D01*
X132752778Y-133977991D01*
X132752777Y-133977992D01*
X132640186Y-134115186D01*
X132545250Y-134193097D01*
X132502991Y-134227778D01*
X132346466Y-134311443D01*
X132176627Y-134362963D01*
X132000000Y-134380359D01*
X131823374Y-134362963D01*
X131653535Y-134311443D01*
X131497010Y-134227778D01*
X131359815Y-134115185D01*
X131247222Y-133977991D01*
X131163557Y-133821466D01*
X131112037Y-133651627D01*
X131099000Y-133519258D01*
X131099000Y-133180743D01*
X131112037Y-133048374D01*
X131163557Y-132878535D01*
X131247222Y-132722010D01*
X131247223Y-132722009D01*
X131359814Y-132584814D01*
X131461271Y-132501552D01*
X131497009Y-132472222D01*
X131653534Y-132388557D01*
X131823373Y-132337037D01*
X132000000Y-132319641D01*
X132176626Y-132337037D01*
G37*
G36*
X142998600Y-132327989D02*
G01*
X143031652Y-132338015D01*
X143062103Y-132354292D01*
X143088799Y-132376201D01*
X143110708Y-132402897D01*
X143126985Y-132433348D01*
X143137011Y-132466400D01*
X143141000Y-132506903D01*
X143141000Y-134193097D01*
X143137011Y-134233600D01*
X143126985Y-134266652D01*
X143110708Y-134297103D01*
X143088799Y-134323799D01*
X143062103Y-134345708D01*
X143031652Y-134361985D01*
X142998600Y-134372011D01*
X142958097Y-134376000D01*
X141521903Y-134376000D01*
X141481400Y-134372011D01*
X141448348Y-134361985D01*
X141417897Y-134345708D01*
X141391201Y-134323799D01*
X141369292Y-134297103D01*
X141353015Y-134266652D01*
X141342989Y-134233600D01*
X141339000Y-134193097D01*
X141339000Y-132506903D01*
X141342989Y-132466400D01*
X141353015Y-132433348D01*
X141369292Y-132402897D01*
X141391201Y-132376201D01*
X141417897Y-132354292D01*
X141448348Y-132338015D01*
X141481400Y-132327989D01*
X141521903Y-132324000D01*
X142958097Y-132324000D01*
X142998600Y-132327989D01*
G37*
G36*
X158238600Y-132327989D02*
G01*
X158271652Y-132338015D01*
X158302103Y-132354292D01*
X158328799Y-132376201D01*
X158350708Y-132402897D01*
X158366985Y-132433348D01*
X158377011Y-132466400D01*
X158381000Y-132506903D01*
X158381000Y-134193097D01*
X158377011Y-134233600D01*
X158366985Y-134266652D01*
X158350708Y-134297103D01*
X158328799Y-134323799D01*
X158302103Y-134345708D01*
X158271652Y-134361985D01*
X158238600Y-134372011D01*
X158198097Y-134376000D01*
X156761903Y-134376000D01*
X156721400Y-134372011D01*
X156688348Y-134361985D01*
X156657897Y-134345708D01*
X156631201Y-134323799D01*
X156609292Y-134297103D01*
X156593015Y-134266652D01*
X156582989Y-134233600D01*
X156579000Y-134193097D01*
X156579000Y-132506903D01*
X156582989Y-132466400D01*
X156593015Y-132433348D01*
X156609292Y-132402897D01*
X156631201Y-132376201D01*
X156657897Y-132354292D01*
X156688348Y-132338015D01*
X156721400Y-132327989D01*
X156761903Y-132324000D01*
X158198097Y-132324000D01*
X158238600Y-132327989D01*
G37*
G36*
X92278600Y-132327989D02*
G01*
X92311652Y-132338015D01*
X92342103Y-132354292D01*
X92368799Y-132376201D01*
X92390708Y-132402897D01*
X92406985Y-132433348D01*
X92417011Y-132466400D01*
X92421000Y-132506903D01*
X92421000Y-134193097D01*
X92417011Y-134233600D01*
X92406985Y-134266652D01*
X92390708Y-134297103D01*
X92368799Y-134323799D01*
X92342103Y-134345708D01*
X92311652Y-134361985D01*
X92278600Y-134372011D01*
X92238097Y-134376000D01*
X90801903Y-134376000D01*
X90761400Y-134372011D01*
X90728348Y-134361985D01*
X90697897Y-134345708D01*
X90671201Y-134323799D01*
X90649292Y-134297103D01*
X90633015Y-134266652D01*
X90622989Y-134233600D01*
X90619000Y-134193097D01*
X90619000Y-132506903D01*
X90622989Y-132466400D01*
X90633015Y-132433348D01*
X90649292Y-132402897D01*
X90671201Y-132376201D01*
X90697897Y-132354292D01*
X90728348Y-132338015D01*
X90761400Y-132327989D01*
X90801903Y-132324000D01*
X92238097Y-132324000D01*
X92278600Y-132327989D01*
G37*
G36*
X109978600Y-132327989D02*
G01*
X110011652Y-132338015D01*
X110042103Y-132354292D01*
X110068799Y-132376201D01*
X110090708Y-132402897D01*
X110106985Y-132433348D01*
X110117011Y-132466400D01*
X110121000Y-132506903D01*
X110121000Y-134193097D01*
X110117011Y-134233600D01*
X110106985Y-134266652D01*
X110090708Y-134297103D01*
X110068799Y-134323799D01*
X110042103Y-134345708D01*
X110011652Y-134361985D01*
X109978600Y-134372011D01*
X109938097Y-134376000D01*
X108501903Y-134376000D01*
X108461400Y-134372011D01*
X108428348Y-134361985D01*
X108397897Y-134345708D01*
X108371201Y-134323799D01*
X108349292Y-134297103D01*
X108333015Y-134266652D01*
X108322989Y-134233600D01*
X108319000Y-134193097D01*
X108319000Y-132506903D01*
X108322989Y-132466400D01*
X108333015Y-132433348D01*
X108349292Y-132402897D01*
X108371201Y-132376201D01*
X108397897Y-132354292D01*
X108428348Y-132338015D01*
X108461400Y-132327989D01*
X108501903Y-132324000D01*
X109938097Y-132324000D01*
X109978600Y-132327989D01*
G37*
G36*
X127758600Y-132327989D02*
G01*
X127791652Y-132338015D01*
X127822103Y-132354292D01*
X127848799Y-132376201D01*
X127870708Y-132402897D01*
X127886985Y-132433348D01*
X127897011Y-132466400D01*
X127901000Y-132506903D01*
X127901000Y-134193097D01*
X127897011Y-134233600D01*
X127886985Y-134266652D01*
X127870708Y-134297103D01*
X127848799Y-134323799D01*
X127822103Y-134345708D01*
X127791652Y-134361985D01*
X127758600Y-134372011D01*
X127718097Y-134376000D01*
X126281903Y-134376000D01*
X126241400Y-134372011D01*
X126208348Y-134361985D01*
X126177897Y-134345708D01*
X126151201Y-134323799D01*
X126129292Y-134297103D01*
X126113015Y-134266652D01*
X126102989Y-134233600D01*
X126099000Y-134193097D01*
X126099000Y-132506903D01*
X126102989Y-132466400D01*
X126113015Y-132433348D01*
X126129292Y-132402897D01*
X126151201Y-132376201D01*
X126177897Y-132354292D01*
X126208348Y-132338015D01*
X126241400Y-132327989D01*
X126281903Y-132324000D01*
X127718097Y-132324000D01*
X127758600Y-132327989D01*
G37*
G36*
X80893600Y-120942989D02*
G01*
X80926652Y-120953015D01*
X80957103Y-120969292D01*
X80983799Y-120991201D01*
X81005708Y-121017897D01*
X81021985Y-121048348D01*
X81032011Y-121081400D01*
X81036000Y-121121903D01*
X81036000Y-122558097D01*
X81032011Y-122598600D01*
X81021985Y-122631652D01*
X81005708Y-122662103D01*
X80983799Y-122688799D01*
X80957103Y-122710708D01*
X80926652Y-122726985D01*
X80893600Y-122737011D01*
X80853097Y-122741000D01*
X79166903Y-122741000D01*
X79126400Y-122737011D01*
X79093348Y-122726985D01*
X79062897Y-122710708D01*
X79036201Y-122688799D01*
X79014292Y-122662103D01*
X78998015Y-122631652D01*
X78987989Y-122598600D01*
X78984000Y-122558097D01*
X78984000Y-121121903D01*
X78987989Y-121081400D01*
X78998015Y-121048348D01*
X79014292Y-121017897D01*
X79036201Y-120991201D01*
X79062897Y-120969292D01*
X79093348Y-120953015D01*
X79126400Y-120942989D01*
X79166903Y-120939000D01*
X80853097Y-120939000D01*
X80893600Y-120942989D01*
G37*
G36*
X178016626Y-119002037D02*
G01*
X178186465Y-119053557D01*
X178186467Y-119053558D01*
X178342989Y-119137221D01*
X178480186Y-119249814D01*
X178563448Y-119351271D01*
X178592778Y-119387009D01*
X178676443Y-119543534D01*
X178727963Y-119713373D01*
X178727963Y-119713375D01*
X178741000Y-119845740D01*
X178741000Y-120184259D01*
X178736695Y-120227963D01*
X178727963Y-120316626D01*
X178676443Y-120486466D01*
X178592778Y-120642991D01*
X178563448Y-120678729D01*
X178480186Y-120780186D01*
X178385250Y-120858097D01*
X178342991Y-120892778D01*
X178342989Y-120892779D01*
X178199845Y-120969292D01*
X178186466Y-120976443D01*
X178016627Y-121027963D01*
X177840000Y-121045359D01*
X177663374Y-121027963D01*
X177493535Y-120976443D01*
X177480157Y-120969292D01*
X177337012Y-120892779D01*
X177337010Y-120892778D01*
X177199815Y-120780185D01*
X177087222Y-120642991D01*
X177003557Y-120486466D01*
X176952037Y-120316627D01*
X176945518Y-120250442D01*
X176939000Y-120184260D01*
X176939000Y-119845741D01*
X176952037Y-119713376D01*
X176952037Y-119713374D01*
X177003557Y-119543535D01*
X177035639Y-119483514D01*
X177087221Y-119387011D01*
X177199814Y-119249814D01*
X177305144Y-119163373D01*
X177337009Y-119137222D01*
X177493534Y-119053557D01*
X177663373Y-119002037D01*
X177840000Y-118984641D01*
X178016626Y-119002037D01*
G37*
G36*
X180516626Y-119002037D02*
G01*
X180686465Y-119053557D01*
X180686467Y-119053558D01*
X180842989Y-119137221D01*
X180980186Y-119249814D01*
X181063448Y-119351271D01*
X181092778Y-119387009D01*
X181176443Y-119543534D01*
X181227963Y-119713373D01*
X181227963Y-119713375D01*
X181241000Y-119845740D01*
X181241000Y-120184259D01*
X181236695Y-120227963D01*
X181227963Y-120316626D01*
X181176443Y-120486466D01*
X181092778Y-120642991D01*
X181063448Y-120678729D01*
X180980186Y-120780186D01*
X180885250Y-120858097D01*
X180842991Y-120892778D01*
X180842989Y-120892779D01*
X180699845Y-120969292D01*
X180686466Y-120976443D01*
X180516627Y-121027963D01*
X180340000Y-121045359D01*
X180163374Y-121027963D01*
X179993535Y-120976443D01*
X179980157Y-120969292D01*
X179837012Y-120892779D01*
X179837010Y-120892778D01*
X179699815Y-120780185D01*
X179587222Y-120642991D01*
X179503557Y-120486466D01*
X179452037Y-120316627D01*
X179445518Y-120250442D01*
X179439000Y-120184260D01*
X179439000Y-119845741D01*
X179452037Y-119713376D01*
X179452037Y-119713374D01*
X179503557Y-119543535D01*
X179535639Y-119483514D01*
X179587221Y-119387011D01*
X179699814Y-119249814D01*
X179805144Y-119163373D01*
X179837009Y-119137222D01*
X179993534Y-119053557D01*
X180163373Y-119002037D01*
X180340000Y-118984641D01*
X180516626Y-119002037D01*
G37*
G36*
X176098600Y-118992989D02*
G01*
X176131652Y-119003015D01*
X176162103Y-119019292D01*
X176188799Y-119041201D01*
X176210708Y-119067897D01*
X176226985Y-119098348D01*
X176237011Y-119131400D01*
X176241000Y-119171903D01*
X176241000Y-120858097D01*
X176237011Y-120898600D01*
X176226985Y-120931652D01*
X176210708Y-120962103D01*
X176188799Y-120988799D01*
X176162103Y-121010708D01*
X176131652Y-121026985D01*
X176098600Y-121037011D01*
X176058097Y-121041000D01*
X174621903Y-121041000D01*
X174581400Y-121037011D01*
X174548348Y-121026985D01*
X174517897Y-121010708D01*
X174491201Y-120988799D01*
X174469292Y-120962103D01*
X174453015Y-120931652D01*
X174442989Y-120898600D01*
X174439000Y-120858097D01*
X174439000Y-119171903D01*
X174442989Y-119131400D01*
X174453015Y-119098348D01*
X174469292Y-119067897D01*
X174491201Y-119041201D01*
X174517897Y-119019292D01*
X174548348Y-119003015D01*
X174581400Y-118992989D01*
X174621903Y-118989000D01*
X176058097Y-118989000D01*
X176098600Y-118992989D01*
G37*
G36*
X167311564Y-118369389D02*
G01*
X167479620Y-118439000D01*
X167502835Y-118448616D01*
X167674973Y-118563635D01*
X167821365Y-118710027D01*
X167935084Y-118880219D01*
X167936385Y-118882167D01*
X168015611Y-119073436D01*
X168056000Y-119276484D01*
X168056000Y-119483516D01*
X168015611Y-119686564D01*
X168004505Y-119713376D01*
X167936384Y-119877835D01*
X167821365Y-120049973D01*
X167674973Y-120196365D01*
X167502835Y-120311384D01*
X167502834Y-120311385D01*
X167502833Y-120311385D01*
X167311564Y-120390611D01*
X167108516Y-120431000D01*
X166901484Y-120431000D01*
X166698436Y-120390611D01*
X166507167Y-120311385D01*
X166507166Y-120311385D01*
X166507165Y-120311384D01*
X166335027Y-120196365D01*
X166188635Y-120049973D01*
X166073616Y-119877835D01*
X166005495Y-119713376D01*
X165994389Y-119686564D01*
X165954000Y-119483516D01*
X165954000Y-119276484D01*
X165994389Y-119073436D01*
X166073615Y-118882167D01*
X166074917Y-118880219D01*
X166188635Y-118710027D01*
X166335027Y-118563635D01*
X166507165Y-118448616D01*
X166530380Y-118439000D01*
X166698436Y-118369389D01*
X166901484Y-118329000D01*
X167108516Y-118329000D01*
X167311564Y-118369389D01*
G37*
G36*
X160456000Y-120431000D02*
G01*
X158354000Y-120431000D01*
X158354000Y-118329000D01*
X160456000Y-118329000D01*
X160456000Y-120431000D01*
G37*
G36*
X80245442Y-118445518D02*
G01*
X80311627Y-118452037D01*
X80481466Y-118503557D01*
X80637991Y-118587222D01*
X80651420Y-118598243D01*
X80775186Y-118699814D01*
X80858448Y-118801271D01*
X80887778Y-118837009D01*
X80971443Y-118993534D01*
X81022963Y-119163373D01*
X81040359Y-119340000D01*
X81022963Y-119516627D01*
X80971443Y-119686466D01*
X80887778Y-119842991D01*
X80885521Y-119845741D01*
X80775186Y-119980186D01*
X80690149Y-120049973D01*
X80637991Y-120092778D01*
X80559729Y-120134610D01*
X80508940Y-120161758D01*
X80481466Y-120176443D01*
X80311627Y-120227963D01*
X80245442Y-120234482D01*
X80179260Y-120241000D01*
X79840740Y-120241000D01*
X79774558Y-120234482D01*
X79708373Y-120227963D01*
X79538534Y-120176443D01*
X79511061Y-120161758D01*
X79460271Y-120134610D01*
X79382009Y-120092778D01*
X79329851Y-120049973D01*
X79244814Y-119980186D01*
X79134479Y-119845741D01*
X79132222Y-119842991D01*
X79048557Y-119686466D01*
X78997037Y-119516627D01*
X78979641Y-119340000D01*
X78997037Y-119163373D01*
X79048557Y-118993534D01*
X79132222Y-118837009D01*
X79161552Y-118801271D01*
X79244814Y-118699814D01*
X79368580Y-118598243D01*
X79382009Y-118587222D01*
X79538534Y-118503557D01*
X79708373Y-118452037D01*
X79774558Y-118445518D01*
X79840740Y-118439000D01*
X80179260Y-118439000D01*
X80245442Y-118445518D01*
G37*
G36*
X119617142Y-118598242D02*
G01*
X119765101Y-118659529D01*
X119898255Y-118748499D01*
X120011501Y-118861745D01*
X120100471Y-118994899D01*
X120161758Y-119142858D01*
X120193000Y-119299925D01*
X120193000Y-119460075D01*
X120161758Y-119617142D01*
X120100471Y-119765101D01*
X120011501Y-119898255D01*
X119898255Y-120011501D01*
X119765101Y-120100471D01*
X119617142Y-120161758D01*
X119460075Y-120193000D01*
X119299925Y-120193000D01*
X119142858Y-120161758D01*
X118994899Y-120100471D01*
X118861745Y-120011501D01*
X118748499Y-119898255D01*
X118659529Y-119765101D01*
X118598242Y-119617142D01*
X118567000Y-119460075D01*
X118567000Y-119299925D01*
X118598242Y-119142858D01*
X118659529Y-118994899D01*
X118748499Y-118861745D01*
X118861745Y-118748499D01*
X118994899Y-118659529D01*
X119142858Y-118598242D01*
X119299925Y-118567000D01*
X119460075Y-118567000D01*
X119617142Y-118598242D01*
G37*
G36*
X117077142Y-118598242D02*
G01*
X117225101Y-118659529D01*
X117358255Y-118748499D01*
X117471501Y-118861745D01*
X117560471Y-118994899D01*
X117621758Y-119142858D01*
X117653000Y-119299925D01*
X117653000Y-119460075D01*
X117621758Y-119617142D01*
X117560471Y-119765101D01*
X117471501Y-119898255D01*
X117358255Y-120011501D01*
X117225101Y-120100471D01*
X117077142Y-120161758D01*
X116920075Y-120193000D01*
X116759925Y-120193000D01*
X116602858Y-120161758D01*
X116454899Y-120100471D01*
X116321745Y-120011501D01*
X116208499Y-119898255D01*
X116119529Y-119765101D01*
X116058242Y-119617142D01*
X116027000Y-119460075D01*
X116027000Y-119299925D01*
X116058242Y-119142858D01*
X116119529Y-118994899D01*
X116208499Y-118861745D01*
X116321745Y-118748499D01*
X116454899Y-118659529D01*
X116602858Y-118598242D01*
X116759925Y-118567000D01*
X116920075Y-118567000D01*
X117077142Y-118598242D01*
G37*
G36*
X122157142Y-118598242D02*
G01*
X122305101Y-118659529D01*
X122438255Y-118748499D01*
X122551501Y-118861745D01*
X122640471Y-118994899D01*
X122701758Y-119142858D01*
X122733000Y-119299925D01*
X122733000Y-119460075D01*
X122701758Y-119617142D01*
X122640471Y-119765101D01*
X122551501Y-119898255D01*
X122438255Y-120011501D01*
X122305101Y-120100471D01*
X122157142Y-120161758D01*
X122000075Y-120193000D01*
X121839925Y-120193000D01*
X121682858Y-120161758D01*
X121534899Y-120100471D01*
X121401745Y-120011501D01*
X121288499Y-119898255D01*
X121199529Y-119765101D01*
X121138242Y-119617142D01*
X121107000Y-119460075D01*
X121107000Y-119299925D01*
X121138242Y-119142858D01*
X121199529Y-118994899D01*
X121288499Y-118861745D01*
X121401745Y-118748499D01*
X121534899Y-118659529D01*
X121682858Y-118598242D01*
X121839925Y-118567000D01*
X122000075Y-118567000D01*
X122157142Y-118598242D01*
G37*
G36*
X124697142Y-118598242D02*
G01*
X124845101Y-118659529D01*
X124978255Y-118748499D01*
X125091501Y-118861745D01*
X125180471Y-118994899D01*
X125241758Y-119142858D01*
X125273000Y-119299925D01*
X125273000Y-119460075D01*
X125241758Y-119617142D01*
X125180471Y-119765101D01*
X125091501Y-119898255D01*
X124978255Y-120011501D01*
X124845101Y-120100471D01*
X124697142Y-120161758D01*
X124540075Y-120193000D01*
X124379925Y-120193000D01*
X124222858Y-120161758D01*
X124074899Y-120100471D01*
X123941745Y-120011501D01*
X123828499Y-119898255D01*
X123739529Y-119765101D01*
X123678242Y-119617142D01*
X123647000Y-119460075D01*
X123647000Y-119299925D01*
X123678242Y-119142858D01*
X123739529Y-118994899D01*
X123828499Y-118861745D01*
X123941745Y-118748499D01*
X124074899Y-118659529D01*
X124222858Y-118598242D01*
X124379925Y-118567000D01*
X124540075Y-118567000D01*
X124697142Y-118598242D01*
G37*
G36*
X127237142Y-118598242D02*
G01*
X127385101Y-118659529D01*
X127518255Y-118748499D01*
X127631501Y-118861745D01*
X127720471Y-118994899D01*
X127781758Y-119142858D01*
X127813000Y-119299925D01*
X127813000Y-119460075D01*
X127781758Y-119617142D01*
X127720471Y-119765101D01*
X127631501Y-119898255D01*
X127518255Y-120011501D01*
X127385101Y-120100471D01*
X127237142Y-120161758D01*
X127080075Y-120193000D01*
X126919925Y-120193000D01*
X126762858Y-120161758D01*
X126614899Y-120100471D01*
X126481745Y-120011501D01*
X126368499Y-119898255D01*
X126279529Y-119765101D01*
X126218242Y-119617142D01*
X126187000Y-119460075D01*
X126187000Y-119299925D01*
X126218242Y-119142858D01*
X126279529Y-118994899D01*
X126368499Y-118861745D01*
X126481745Y-118748499D01*
X126614899Y-118659529D01*
X126762858Y-118598242D01*
X126919925Y-118567000D01*
X127080075Y-118567000D01*
X127237142Y-118598242D01*
G37*
G36*
X129777142Y-118598242D02*
G01*
X129925101Y-118659529D01*
X130058255Y-118748499D01*
X130171501Y-118861745D01*
X130260471Y-118994899D01*
X130321758Y-119142858D01*
X130353000Y-119299925D01*
X130353000Y-119460075D01*
X130321758Y-119617142D01*
X130260471Y-119765101D01*
X130171501Y-119898255D01*
X130058255Y-120011501D01*
X129925101Y-120100471D01*
X129777142Y-120161758D01*
X129620075Y-120193000D01*
X129459925Y-120193000D01*
X129302858Y-120161758D01*
X129154899Y-120100471D01*
X129021745Y-120011501D01*
X128908499Y-119898255D01*
X128819529Y-119765101D01*
X128758242Y-119617142D01*
X128727000Y-119460075D01*
X128727000Y-119299925D01*
X128758242Y-119142858D01*
X128819529Y-118994899D01*
X128908499Y-118861745D01*
X129021745Y-118748499D01*
X129154899Y-118659529D01*
X129302858Y-118598242D01*
X129459925Y-118567000D01*
X129620075Y-118567000D01*
X129777142Y-118598242D01*
G37*
G36*
X104373642Y-117339781D02*
G01*
X104519414Y-117400162D01*
X104519416Y-117400163D01*
X104650608Y-117487822D01*
X104762178Y-117599392D01*
X104849837Y-117730584D01*
X104849838Y-117730586D01*
X104910219Y-117876358D01*
X104941000Y-118031107D01*
X104941000Y-118188893D01*
X104910219Y-118343642D01*
X104866737Y-118448616D01*
X104849837Y-118489416D01*
X104762178Y-118620608D01*
X104650608Y-118732178D01*
X104519416Y-118819837D01*
X104519415Y-118819838D01*
X104519414Y-118819838D01*
X104373642Y-118880219D01*
X104218893Y-118911000D01*
X104061107Y-118911000D01*
X103906358Y-118880219D01*
X103760586Y-118819838D01*
X103760585Y-118819838D01*
X103760584Y-118819837D01*
X103629392Y-118732178D01*
X103517822Y-118620608D01*
X103430163Y-118489416D01*
X103413263Y-118448616D01*
X103369781Y-118343642D01*
X103339000Y-118188893D01*
X103339000Y-118031107D01*
X103369781Y-117876358D01*
X103430162Y-117730586D01*
X103430163Y-117730584D01*
X103517822Y-117599392D01*
X103629392Y-117487822D01*
X103760584Y-117400163D01*
X103760586Y-117400162D01*
X103906358Y-117339781D01*
X104061107Y-117309000D01*
X104218893Y-117309000D01*
X104373642Y-117339781D01*
G37*
G36*
X97321000Y-118911000D02*
G01*
X95719000Y-118911000D01*
X95719000Y-117309000D01*
X97321000Y-117309000D01*
X97321000Y-118911000D01*
G37*
G36*
X101833642Y-117339781D02*
G01*
X101979414Y-117400162D01*
X101979416Y-117400163D01*
X102110608Y-117487822D01*
X102222178Y-117599392D01*
X102309837Y-117730584D01*
X102309838Y-117730586D01*
X102370219Y-117876358D01*
X102401000Y-118031107D01*
X102401000Y-118188893D01*
X102370219Y-118343642D01*
X102326737Y-118448616D01*
X102309837Y-118489416D01*
X102222178Y-118620608D01*
X102110608Y-118732178D01*
X101979416Y-118819837D01*
X101979415Y-118819838D01*
X101979414Y-118819838D01*
X101833642Y-118880219D01*
X101678893Y-118911000D01*
X101521107Y-118911000D01*
X101366358Y-118880219D01*
X101220586Y-118819838D01*
X101220585Y-118819838D01*
X101220584Y-118819837D01*
X101089392Y-118732178D01*
X100977822Y-118620608D01*
X100890163Y-118489416D01*
X100873263Y-118448616D01*
X100829781Y-118343642D01*
X100799000Y-118188893D01*
X100799000Y-118031107D01*
X100829781Y-117876358D01*
X100890162Y-117730586D01*
X100890163Y-117730584D01*
X100977822Y-117599392D01*
X101089392Y-117487822D01*
X101220584Y-117400163D01*
X101220586Y-117400162D01*
X101366358Y-117339781D01*
X101521107Y-117309000D01*
X101678893Y-117309000D01*
X101833642Y-117339781D01*
G37*
G36*
X99293642Y-117339781D02*
G01*
X99439414Y-117400162D01*
X99439416Y-117400163D01*
X99570608Y-117487822D01*
X99682178Y-117599392D01*
X99769837Y-117730584D01*
X99769838Y-117730586D01*
X99830219Y-117876358D01*
X99861000Y-118031107D01*
X99861000Y-118188893D01*
X99830219Y-118343642D01*
X99786737Y-118448616D01*
X99769837Y-118489416D01*
X99682178Y-118620608D01*
X99570608Y-118732178D01*
X99439416Y-118819837D01*
X99439415Y-118819838D01*
X99439414Y-118819838D01*
X99293642Y-118880219D01*
X99138893Y-118911000D01*
X98981107Y-118911000D01*
X98826358Y-118880219D01*
X98680586Y-118819838D01*
X98680585Y-118819838D01*
X98680584Y-118819837D01*
X98549392Y-118732178D01*
X98437822Y-118620608D01*
X98350163Y-118489416D01*
X98333263Y-118448616D01*
X98289781Y-118343642D01*
X98259000Y-118188893D01*
X98259000Y-118031107D01*
X98289781Y-117876358D01*
X98350162Y-117730586D01*
X98350163Y-117730584D01*
X98437822Y-117599392D01*
X98549392Y-117487822D01*
X98680584Y-117400163D01*
X98680586Y-117400162D01*
X98826358Y-117339781D01*
X98981107Y-117309000D01*
X99138893Y-117309000D01*
X99293642Y-117339781D01*
G37*
G36*
X80245442Y-115945518D02*
G01*
X80311627Y-115952037D01*
X80481466Y-116003557D01*
X80637991Y-116087222D01*
X80673729Y-116116552D01*
X80775186Y-116199814D01*
X80858448Y-116301271D01*
X80887778Y-116337009D01*
X80971443Y-116493534D01*
X81022963Y-116663373D01*
X81040359Y-116840000D01*
X81022963Y-117016627D01*
X80971443Y-117186466D01*
X80887778Y-117342991D01*
X80858448Y-117378729D01*
X80775186Y-117480186D01*
X80673729Y-117563448D01*
X80637991Y-117592778D01*
X80481466Y-117676443D01*
X80311627Y-117727963D01*
X80245442Y-117734482D01*
X80179260Y-117741000D01*
X79840740Y-117741000D01*
X79774558Y-117734482D01*
X79708373Y-117727963D01*
X79538534Y-117676443D01*
X79382009Y-117592778D01*
X79346271Y-117563448D01*
X79244814Y-117480186D01*
X79161552Y-117378729D01*
X79132222Y-117342991D01*
X79048557Y-117186466D01*
X78997037Y-117016627D01*
X78979641Y-116840000D01*
X78997037Y-116663373D01*
X79048557Y-116493534D01*
X79132222Y-116337009D01*
X79161552Y-116301271D01*
X79244814Y-116199814D01*
X79346271Y-116116552D01*
X79382009Y-116087222D01*
X79538534Y-116003557D01*
X79708373Y-115952037D01*
X79774558Y-115945518D01*
X79840740Y-115939000D01*
X80179260Y-115939000D01*
X80245442Y-115945518D01*
G37*
G36*
X179801626Y-108207037D02*
G01*
X179971465Y-108258557D01*
X179971467Y-108258558D01*
X180127989Y-108342221D01*
X180265186Y-108454814D01*
X180348448Y-108556271D01*
X180377778Y-108592009D01*
X180461443Y-108748534D01*
X180512963Y-108918373D01*
X180526000Y-109050742D01*
X180526000Y-109389257D01*
X180512963Y-109521626D01*
X180461443Y-109691466D01*
X180377778Y-109847991D01*
X180369484Y-109858097D01*
X180265186Y-109985186D01*
X180197175Y-110041000D01*
X180127991Y-110097778D01*
X179971466Y-110181443D01*
X179801627Y-110232963D01*
X179625000Y-110250359D01*
X179448374Y-110232963D01*
X179278535Y-110181443D01*
X179122010Y-110097778D01*
X178984815Y-109985185D01*
X178872222Y-109847991D01*
X178788557Y-109691466D01*
X178737037Y-109521627D01*
X178724000Y-109389258D01*
X178724000Y-109050743D01*
X178737037Y-108918374D01*
X178788557Y-108748535D01*
X178872222Y-108592010D01*
X178872223Y-108592009D01*
X178984814Y-108454814D01*
X179086271Y-108371552D01*
X179122009Y-108342222D01*
X179278534Y-108258557D01*
X179448373Y-108207037D01*
X179625000Y-108189641D01*
X179801626Y-108207037D01*
G37*
G36*
X177301626Y-108207037D02*
G01*
X177471465Y-108258557D01*
X177471467Y-108258558D01*
X177627989Y-108342221D01*
X177765186Y-108454814D01*
X177848448Y-108556271D01*
X177877778Y-108592009D01*
X177961443Y-108748534D01*
X178012963Y-108918373D01*
X178026000Y-109050742D01*
X178026000Y-109389257D01*
X178012963Y-109521626D01*
X177961443Y-109691466D01*
X177877778Y-109847991D01*
X177869484Y-109858097D01*
X177765186Y-109985186D01*
X177697175Y-110041000D01*
X177627991Y-110097778D01*
X177471466Y-110181443D01*
X177301627Y-110232963D01*
X177125000Y-110250359D01*
X176948374Y-110232963D01*
X176778535Y-110181443D01*
X176622010Y-110097778D01*
X176484815Y-109985185D01*
X176372222Y-109847991D01*
X176288557Y-109691466D01*
X176237037Y-109521627D01*
X176224000Y-109389258D01*
X176224000Y-109050743D01*
X176237037Y-108918374D01*
X176288557Y-108748535D01*
X176372222Y-108592010D01*
X176372223Y-108592009D01*
X176484814Y-108454814D01*
X176586271Y-108371552D01*
X176622009Y-108342222D01*
X176778534Y-108258557D01*
X176948373Y-108207037D01*
X177125000Y-108189641D01*
X177301626Y-108207037D01*
G37*
G36*
X182301626Y-108207037D02*
G01*
X182471465Y-108258557D01*
X182471467Y-108258558D01*
X182627989Y-108342221D01*
X182765186Y-108454814D01*
X182848448Y-108556271D01*
X182877778Y-108592009D01*
X182961443Y-108748534D01*
X183012963Y-108918373D01*
X183026000Y-109050742D01*
X183026000Y-109389257D01*
X183012963Y-109521626D01*
X182961443Y-109691466D01*
X182877778Y-109847991D01*
X182869484Y-109858097D01*
X182765186Y-109985186D01*
X182697175Y-110041000D01*
X182627991Y-110097778D01*
X182471466Y-110181443D01*
X182301627Y-110232963D01*
X182125000Y-110250359D01*
X181948374Y-110232963D01*
X181778535Y-110181443D01*
X181622010Y-110097778D01*
X181484815Y-109985185D01*
X181372222Y-109847991D01*
X181288557Y-109691466D01*
X181237037Y-109521627D01*
X181224000Y-109389258D01*
X181224000Y-109050743D01*
X181237037Y-108918374D01*
X181288557Y-108748535D01*
X181372222Y-108592010D01*
X181372223Y-108592009D01*
X181484814Y-108454814D01*
X181586271Y-108371552D01*
X181622009Y-108342222D01*
X181778534Y-108258557D01*
X181948373Y-108207037D01*
X182125000Y-108189641D01*
X182301626Y-108207037D01*
G37*
G36*
X175383600Y-108197989D02*
G01*
X175416652Y-108208015D01*
X175447103Y-108224292D01*
X175473799Y-108246201D01*
X175495708Y-108272897D01*
X175511985Y-108303348D01*
X175522011Y-108336400D01*
X175526000Y-108376903D01*
X175526000Y-110063097D01*
X175522011Y-110103600D01*
X175511985Y-110136652D01*
X175495708Y-110167103D01*
X175473799Y-110193799D01*
X175447103Y-110215708D01*
X175416652Y-110231985D01*
X175383600Y-110242011D01*
X175343097Y-110246000D01*
X173906903Y-110246000D01*
X173866400Y-110242011D01*
X173833348Y-110231985D01*
X173802897Y-110215708D01*
X173776201Y-110193799D01*
X173754292Y-110167103D01*
X173738015Y-110136652D01*
X173727989Y-110103600D01*
X173724000Y-110063097D01*
X173724000Y-108376903D01*
X173727989Y-108336400D01*
X173738015Y-108303348D01*
X173754292Y-108272897D01*
X173776201Y-108246201D01*
X173802897Y-108224292D01*
X173833348Y-108208015D01*
X173866400Y-108197989D01*
X173906903Y-108194000D01*
X175343097Y-108194000D01*
X175383600Y-108197989D01*
G37*
G36*
X80893600Y-108242989D02*
G01*
X80926652Y-108253015D01*
X80957103Y-108269292D01*
X80983799Y-108291201D01*
X81005708Y-108317897D01*
X81021985Y-108348348D01*
X81032011Y-108381400D01*
X81036000Y-108421903D01*
X81036000Y-109858097D01*
X81032011Y-109898600D01*
X81021985Y-109931652D01*
X81005708Y-109962103D01*
X80983799Y-109988799D01*
X80957103Y-110010708D01*
X80926652Y-110026985D01*
X80893600Y-110037011D01*
X80853097Y-110041000D01*
X79166903Y-110041000D01*
X79126400Y-110037011D01*
X79093348Y-110026985D01*
X79062897Y-110010708D01*
X79036201Y-109988799D01*
X79014292Y-109962103D01*
X78998015Y-109931652D01*
X78987989Y-109898600D01*
X78984000Y-109858097D01*
X78984000Y-108421903D01*
X78987989Y-108381400D01*
X78998015Y-108348348D01*
X79014292Y-108317897D01*
X79036201Y-108291201D01*
X79062897Y-108269292D01*
X79093348Y-108253015D01*
X79126400Y-108242989D01*
X79166903Y-108239000D01*
X80853097Y-108239000D01*
X80893600Y-108242989D01*
G37*
G36*
X107913254Y-104072818D02*
G01*
X108286511Y-104227426D01*
X108286513Y-104227427D01*
X108622436Y-104451884D01*
X108908116Y-104737564D01*
X109102155Y-105027963D01*
X109132574Y-105073489D01*
X109287182Y-105446746D01*
X109366000Y-105842993D01*
X109366000Y-106247007D01*
X109287182Y-106643254D01*
X109145019Y-106986466D01*
X109132573Y-107016513D01*
X108908116Y-107352436D01*
X108622436Y-107638116D01*
X108286513Y-107862573D01*
X108286512Y-107862574D01*
X108286511Y-107862574D01*
X107913254Y-108017182D01*
X107517007Y-108096000D01*
X107112993Y-108096000D01*
X106716746Y-108017182D01*
X106343489Y-107862574D01*
X106343488Y-107862574D01*
X106343487Y-107862573D01*
X106007564Y-107638116D01*
X105721884Y-107352436D01*
X105497427Y-107016513D01*
X105484981Y-106986466D01*
X105342818Y-106643254D01*
X105264000Y-106247007D01*
X105264000Y-105842993D01*
X105342818Y-105446746D01*
X105497426Y-105073489D01*
X105527846Y-105027963D01*
X105721884Y-104737564D01*
X106007564Y-104451884D01*
X106343487Y-104227427D01*
X106343489Y-104227426D01*
X106716746Y-104072818D01*
X107112993Y-103994000D01*
X107517007Y-103994000D01*
X107913254Y-104072818D01*
G37*
G36*
X80245443Y-105745519D02*
G01*
X80311627Y-105752037D01*
X80481466Y-105803557D01*
X80637991Y-105887222D01*
X80673729Y-105916552D01*
X80775186Y-105999814D01*
X80858448Y-106101271D01*
X80887778Y-106137009D01*
X80971443Y-106293534D01*
X81022963Y-106463373D01*
X81040359Y-106640000D01*
X81022963Y-106816627D01*
X80971443Y-106986466D01*
X80971442Y-106986468D01*
X80955382Y-107016513D01*
X80887778Y-107142991D01*
X80858448Y-107178729D01*
X80775186Y-107280186D01*
X80687148Y-107352436D01*
X80637991Y-107392778D01*
X80481466Y-107476443D01*
X80311627Y-107527963D01*
X80245443Y-107534481D01*
X80179260Y-107541000D01*
X79840740Y-107541000D01*
X79774557Y-107534481D01*
X79708373Y-107527963D01*
X79538534Y-107476443D01*
X79382009Y-107392778D01*
X79332852Y-107352436D01*
X79244814Y-107280186D01*
X79161552Y-107178729D01*
X79132222Y-107142991D01*
X79064618Y-107016513D01*
X79048558Y-106986468D01*
X79048557Y-106986466D01*
X78997037Y-106816627D01*
X78979641Y-106640000D01*
X78997037Y-106463373D01*
X79048557Y-106293534D01*
X79132222Y-106137009D01*
X79161552Y-106101271D01*
X79244814Y-105999814D01*
X79346271Y-105916552D01*
X79382009Y-105887222D01*
X79538534Y-105803557D01*
X79708373Y-105752037D01*
X79774557Y-105745519D01*
X79840740Y-105739000D01*
X80179260Y-105739000D01*
X80245443Y-105745519D01*
G37*
G36*
X94217142Y-104628242D02*
G01*
X94365101Y-104689529D01*
X94498255Y-104778499D01*
X94611501Y-104891745D01*
X94700471Y-105024899D01*
X94761758Y-105172858D01*
X94793000Y-105329925D01*
X94793000Y-105490075D01*
X94761758Y-105647142D01*
X94700471Y-105795101D01*
X94611501Y-105928255D01*
X94498255Y-106041501D01*
X94365101Y-106130471D01*
X94217142Y-106191758D01*
X94060075Y-106223000D01*
X93899925Y-106223000D01*
X93742858Y-106191758D01*
X93594899Y-106130471D01*
X93461745Y-106041501D01*
X93348499Y-105928255D01*
X93259529Y-105795101D01*
X93198242Y-105647142D01*
X93167000Y-105490075D01*
X93167000Y-105329925D01*
X93198242Y-105172858D01*
X93259529Y-105024899D01*
X93348499Y-104891745D01*
X93461745Y-104778499D01*
X93594899Y-104689529D01*
X93742858Y-104628242D01*
X93899925Y-104597000D01*
X94060075Y-104597000D01*
X94217142Y-104628242D01*
G37*
G36*
X80245443Y-103245519D02*
G01*
X80311627Y-103252037D01*
X80481466Y-103303557D01*
X80637991Y-103387222D01*
X80673729Y-103416552D01*
X80775186Y-103499814D01*
X80849585Y-103590471D01*
X80887778Y-103637009D01*
X80971443Y-103793534D01*
X81022963Y-103963373D01*
X81040359Y-104140000D01*
X81022963Y-104316627D01*
X80971443Y-104486466D01*
X80887778Y-104642991D01*
X80858448Y-104678729D01*
X80775186Y-104780186D01*
X80673729Y-104863448D01*
X80637991Y-104892778D01*
X80481466Y-104976443D01*
X80311627Y-105027963D01*
X80245442Y-105034482D01*
X80179260Y-105041000D01*
X79840740Y-105041000D01*
X79774557Y-105034481D01*
X79708373Y-105027963D01*
X79538534Y-104976443D01*
X79382009Y-104892778D01*
X79346271Y-104863448D01*
X79244814Y-104780186D01*
X79161552Y-104678729D01*
X79132222Y-104642991D01*
X79048557Y-104486466D01*
X78997037Y-104316627D01*
X78979641Y-104140000D01*
X78997037Y-103963373D01*
X79048557Y-103793534D01*
X79132222Y-103637009D01*
X79170415Y-103590471D01*
X79244814Y-103499814D01*
X79346271Y-103416552D01*
X79382009Y-103387222D01*
X79538534Y-103303557D01*
X79708373Y-103252037D01*
X79774558Y-103245518D01*
X79840740Y-103239000D01*
X80179260Y-103239000D01*
X80245443Y-103245519D01*
G37*
G36*
X94217142Y-102088242D02*
G01*
X94365101Y-102149529D01*
X94498255Y-102238499D01*
X94611501Y-102351745D01*
X94700471Y-102484899D01*
X94761758Y-102632858D01*
X94793000Y-102789925D01*
X94793000Y-102950075D01*
X94761758Y-103107142D01*
X94700471Y-103255101D01*
X94611501Y-103388255D01*
X94498255Y-103501501D01*
X94365101Y-103590471D01*
X94217142Y-103651758D01*
X94060075Y-103683000D01*
X93899925Y-103683000D01*
X93742858Y-103651758D01*
X93594899Y-103590471D01*
X93461745Y-103501501D01*
X93348499Y-103388255D01*
X93259529Y-103255101D01*
X93198242Y-103107142D01*
X93167000Y-102950075D01*
X93167000Y-102789925D01*
X93198242Y-102632858D01*
X93259529Y-102484899D01*
X93348499Y-102351745D01*
X93461745Y-102238499D01*
X93594899Y-102149529D01*
X93742858Y-102088242D01*
X93899925Y-102057000D01*
X94060075Y-102057000D01*
X94217142Y-102088242D01*
G37*
G36*
X94217142Y-99548242D02*
G01*
X94365101Y-99609529D01*
X94498255Y-99698499D01*
X94611501Y-99811745D01*
X94700471Y-99944899D01*
X94761758Y-100092858D01*
X94793000Y-100249925D01*
X94793000Y-100410075D01*
X94761758Y-100567142D01*
X94700471Y-100715101D01*
X94611501Y-100848255D01*
X94498255Y-100961501D01*
X94365101Y-101050471D01*
X94217142Y-101111758D01*
X94060075Y-101143000D01*
X93899925Y-101143000D01*
X93742858Y-101111758D01*
X93594899Y-101050471D01*
X93461745Y-100961501D01*
X93348499Y-100848255D01*
X93259529Y-100715101D01*
X93198242Y-100567142D01*
X93167000Y-100410075D01*
X93167000Y-100249925D01*
X93198242Y-100092858D01*
X93259529Y-99944899D01*
X93348499Y-99811745D01*
X93461745Y-99698499D01*
X93594899Y-99609529D01*
X93742858Y-99548242D01*
X93899925Y-99517000D01*
X94060075Y-99517000D01*
X94217142Y-99548242D01*
G37*
G36*
X177301626Y-97412037D02*
G01*
X177471465Y-97463557D01*
X177471467Y-97463558D01*
X177627989Y-97547221D01*
X177765186Y-97659814D01*
X177848448Y-97761271D01*
X177877778Y-97797009D01*
X177961443Y-97953534D01*
X178012963Y-98123373D01*
X178026000Y-98255742D01*
X178026000Y-98594257D01*
X178012963Y-98726626D01*
X177961443Y-98896466D01*
X177877778Y-99052991D01*
X177848448Y-99088729D01*
X177765186Y-99190186D01*
X177670250Y-99268097D01*
X177627991Y-99302778D01*
X177471466Y-99386443D01*
X177301627Y-99437963D01*
X177125000Y-99455359D01*
X176948374Y-99437963D01*
X176778535Y-99386443D01*
X176622010Y-99302778D01*
X176484815Y-99190185D01*
X176372222Y-99052991D01*
X176288557Y-98896466D01*
X176237037Y-98726627D01*
X176224000Y-98594258D01*
X176224000Y-98255743D01*
X176237037Y-98123374D01*
X176288557Y-97953535D01*
X176288559Y-97953532D01*
X176372221Y-97797011D01*
X176484814Y-97659814D01*
X176586271Y-97576552D01*
X176622009Y-97547222D01*
X176778534Y-97463557D01*
X176948373Y-97412037D01*
X177125000Y-97394641D01*
X177301626Y-97412037D01*
G37*
G36*
X179801626Y-97412037D02*
G01*
X179971465Y-97463557D01*
X179971467Y-97463558D01*
X180127989Y-97547221D01*
X180265186Y-97659814D01*
X180348448Y-97761271D01*
X180377778Y-97797009D01*
X180461443Y-97953534D01*
X180512963Y-98123373D01*
X180526000Y-98255742D01*
X180526000Y-98594257D01*
X180512963Y-98726626D01*
X180461443Y-98896466D01*
X180377778Y-99052991D01*
X180348448Y-99088729D01*
X180265186Y-99190186D01*
X180170250Y-99268097D01*
X180127991Y-99302778D01*
X179971466Y-99386443D01*
X179801627Y-99437963D01*
X179625000Y-99455359D01*
X179448374Y-99437963D01*
X179278535Y-99386443D01*
X179122010Y-99302778D01*
X178984815Y-99190185D01*
X178872222Y-99052991D01*
X178788557Y-98896466D01*
X178737037Y-98726627D01*
X178724000Y-98594258D01*
X178724000Y-98255743D01*
X178737037Y-98123374D01*
X178788557Y-97953535D01*
X178788559Y-97953532D01*
X178872221Y-97797011D01*
X178984814Y-97659814D01*
X179086271Y-97576552D01*
X179122009Y-97547222D01*
X179278534Y-97463557D01*
X179448373Y-97412037D01*
X179625000Y-97394641D01*
X179801626Y-97412037D01*
G37*
G36*
X182301626Y-97412037D02*
G01*
X182471465Y-97463557D01*
X182471467Y-97463558D01*
X182627989Y-97547221D01*
X182765186Y-97659814D01*
X182848448Y-97761271D01*
X182877778Y-97797009D01*
X182961443Y-97953534D01*
X183012963Y-98123373D01*
X183026000Y-98255742D01*
X183026000Y-98594257D01*
X183012963Y-98726626D01*
X182961443Y-98896466D01*
X182877778Y-99052991D01*
X182848448Y-99088729D01*
X182765186Y-99190186D01*
X182670250Y-99268097D01*
X182627991Y-99302778D01*
X182471466Y-99386443D01*
X182301627Y-99437963D01*
X182125000Y-99455359D01*
X181948374Y-99437963D01*
X181778535Y-99386443D01*
X181622010Y-99302778D01*
X181484815Y-99190185D01*
X181372222Y-99052991D01*
X181288557Y-98896466D01*
X181237037Y-98726627D01*
X181224000Y-98594258D01*
X181224000Y-98255743D01*
X181237037Y-98123374D01*
X181288557Y-97953535D01*
X181288559Y-97953532D01*
X181372221Y-97797011D01*
X181484814Y-97659814D01*
X181586271Y-97576552D01*
X181622009Y-97547222D01*
X181778534Y-97463557D01*
X181948373Y-97412037D01*
X182125000Y-97394641D01*
X182301626Y-97412037D01*
G37*
G36*
X175383600Y-97402989D02*
G01*
X175416652Y-97413015D01*
X175447103Y-97429292D01*
X175473799Y-97451201D01*
X175495708Y-97477897D01*
X175511985Y-97508348D01*
X175522011Y-97541400D01*
X175526000Y-97581903D01*
X175526000Y-99268097D01*
X175522011Y-99308600D01*
X175511985Y-99341652D01*
X175495708Y-99372103D01*
X175473799Y-99398799D01*
X175447103Y-99420708D01*
X175416652Y-99436985D01*
X175383600Y-99447011D01*
X175343097Y-99451000D01*
X173906903Y-99451000D01*
X173866400Y-99447011D01*
X173833348Y-99436985D01*
X173802897Y-99420708D01*
X173776201Y-99398799D01*
X173754292Y-99372103D01*
X173738015Y-99341652D01*
X173727989Y-99308600D01*
X173724000Y-99268097D01*
X173724000Y-97581903D01*
X173727989Y-97541400D01*
X173738015Y-97508348D01*
X173754292Y-97477897D01*
X173776201Y-97451201D01*
X173802897Y-97429292D01*
X173833348Y-97413015D01*
X173866400Y-97402989D01*
X173906903Y-97399000D01*
X175343097Y-97399000D01*
X175383600Y-97402989D01*
G37*
G36*
X94217142Y-97008242D02*
G01*
X94365101Y-97069529D01*
X94498255Y-97158499D01*
X94611501Y-97271745D01*
X94700471Y-97404899D01*
X94761758Y-97552858D01*
X94793000Y-97709925D01*
X94793000Y-97870075D01*
X94761758Y-98027142D01*
X94700471Y-98175101D01*
X94611501Y-98308255D01*
X94498255Y-98421501D01*
X94365101Y-98510471D01*
X94217142Y-98571758D01*
X94060075Y-98603000D01*
X93899925Y-98603000D01*
X93742858Y-98571758D01*
X93594899Y-98510471D01*
X93461745Y-98421501D01*
X93348499Y-98308255D01*
X93259529Y-98175101D01*
X93198242Y-98027142D01*
X93167000Y-97870075D01*
X93167000Y-97709925D01*
X93198242Y-97552858D01*
X93259529Y-97404899D01*
X93348499Y-97271745D01*
X93461745Y-97158499D01*
X93594899Y-97069529D01*
X93742858Y-97008242D01*
X93899925Y-96977000D01*
X94060075Y-96977000D01*
X94217142Y-97008242D01*
G37*
G36*
X80893600Y-95542989D02*
G01*
X80926652Y-95553015D01*
X80957103Y-95569292D01*
X80983799Y-95591201D01*
X81005708Y-95617897D01*
X81021985Y-95648348D01*
X81032011Y-95681400D01*
X81036000Y-95721903D01*
X81036000Y-97158097D01*
X81032011Y-97198600D01*
X81021985Y-97231652D01*
X81005708Y-97262103D01*
X80983799Y-97288799D01*
X80957103Y-97310708D01*
X80926652Y-97326985D01*
X80893600Y-97337011D01*
X80853097Y-97341000D01*
X79166903Y-97341000D01*
X79126400Y-97337011D01*
X79093348Y-97326985D01*
X79062897Y-97310708D01*
X79036201Y-97288799D01*
X79014292Y-97262103D01*
X78998015Y-97231652D01*
X78987989Y-97198600D01*
X78984000Y-97158097D01*
X78984000Y-95721903D01*
X78987989Y-95681400D01*
X78998015Y-95648348D01*
X79014292Y-95617897D01*
X79036201Y-95591201D01*
X79062897Y-95569292D01*
X79093348Y-95553015D01*
X79126400Y-95542989D01*
X79166903Y-95539000D01*
X80853097Y-95539000D01*
X80893600Y-95542989D01*
G37*
G36*
X94217142Y-94468242D02*
G01*
X94365101Y-94529529D01*
X94498255Y-94618499D01*
X94611501Y-94731745D01*
X94700471Y-94864899D01*
X94761758Y-95012858D01*
X94793000Y-95169925D01*
X94793000Y-95330075D01*
X94761758Y-95487142D01*
X94700471Y-95635101D01*
X94611501Y-95768255D01*
X94498255Y-95881501D01*
X94365101Y-95970471D01*
X94217142Y-96031758D01*
X94060075Y-96063000D01*
X93899925Y-96063000D01*
X93742858Y-96031758D01*
X93594899Y-95970471D01*
X93461745Y-95881501D01*
X93348499Y-95768255D01*
X93259529Y-95635101D01*
X93198242Y-95487142D01*
X93167000Y-95330075D01*
X93167000Y-95169925D01*
X93198242Y-95012858D01*
X93259529Y-94864899D01*
X93348499Y-94731745D01*
X93461745Y-94618499D01*
X93594899Y-94529529D01*
X93742858Y-94468242D01*
X93899925Y-94437000D01*
X94060075Y-94437000D01*
X94217142Y-94468242D01*
G37*
G36*
X80245442Y-93045518D02*
G01*
X80311627Y-93052037D01*
X80481466Y-93103557D01*
X80637991Y-93187222D01*
X80673729Y-93216552D01*
X80775186Y-93299814D01*
X80858448Y-93401271D01*
X80887778Y-93437009D01*
X80971443Y-93593534D01*
X81022963Y-93763373D01*
X81040359Y-93940000D01*
X81022963Y-94116627D01*
X80971443Y-94286466D01*
X80887778Y-94442991D01*
X80867055Y-94468242D01*
X80775186Y-94580186D01*
X80673729Y-94663448D01*
X80637991Y-94692778D01*
X80481466Y-94776443D01*
X80311627Y-94827963D01*
X80245443Y-94834481D01*
X80179260Y-94841000D01*
X79840740Y-94841000D01*
X79774557Y-94834481D01*
X79708373Y-94827963D01*
X79538534Y-94776443D01*
X79382009Y-94692778D01*
X79346271Y-94663448D01*
X79244814Y-94580186D01*
X79152945Y-94468242D01*
X79132222Y-94442991D01*
X79048557Y-94286466D01*
X78997037Y-94116627D01*
X78979641Y-93940000D01*
X78997037Y-93763373D01*
X79048557Y-93593534D01*
X79132222Y-93437009D01*
X79161552Y-93401271D01*
X79244814Y-93299814D01*
X79346271Y-93216552D01*
X79382009Y-93187222D01*
X79538534Y-93103557D01*
X79708373Y-93052037D01*
X79774558Y-93045518D01*
X79840740Y-93039000D01*
X80179260Y-93039000D01*
X80245442Y-93045518D01*
G37*
G36*
X94217142Y-91928242D02*
G01*
X94365101Y-91989529D01*
X94498255Y-92078499D01*
X94611501Y-92191745D01*
X94700471Y-92324899D01*
X94761758Y-92472858D01*
X94793000Y-92629925D01*
X94793000Y-92790075D01*
X94761758Y-92947142D01*
X94700471Y-93095101D01*
X94611501Y-93228255D01*
X94498255Y-93341501D01*
X94365101Y-93430471D01*
X94217142Y-93491758D01*
X94060075Y-93523000D01*
X93899925Y-93523000D01*
X93742858Y-93491758D01*
X93594899Y-93430471D01*
X93461745Y-93341501D01*
X93348499Y-93228255D01*
X93259529Y-93095101D01*
X93198242Y-92947142D01*
X93167000Y-92790075D01*
X93167000Y-92629925D01*
X93198242Y-92472858D01*
X93259529Y-92324899D01*
X93348499Y-92191745D01*
X93461745Y-92078499D01*
X93594899Y-91989529D01*
X93742858Y-91928242D01*
X93899925Y-91897000D01*
X94060075Y-91897000D01*
X94217142Y-91928242D01*
G37*
G36*
X130182007Y-88688582D02*
G01*
X130582563Y-88854498D01*
X130582565Y-88854499D01*
X130943056Y-89095371D01*
X131249629Y-89401944D01*
X131340873Y-89538501D01*
X131490502Y-89762437D01*
X131656418Y-90162993D01*
X131741000Y-90588219D01*
X131741000Y-91021781D01*
X131656418Y-91447007D01*
X131586159Y-91616627D01*
X131490501Y-91847565D01*
X131249629Y-92208056D01*
X130943056Y-92514629D01*
X130582565Y-92755501D01*
X130582564Y-92755502D01*
X130582563Y-92755502D01*
X130182007Y-92921418D01*
X129756781Y-93006000D01*
X129323219Y-93006000D01*
X128897993Y-92921418D01*
X128497437Y-92755502D01*
X128497436Y-92755502D01*
X128497435Y-92755501D01*
X128136944Y-92514629D01*
X127830371Y-92208056D01*
X127589499Y-91847565D01*
X127493841Y-91616627D01*
X127423582Y-91447007D01*
X127339000Y-91021781D01*
X127339000Y-90588219D01*
X127423582Y-90162993D01*
X127589498Y-89762437D01*
X127739127Y-89538501D01*
X127830371Y-89401944D01*
X128136944Y-89095371D01*
X128497435Y-88854499D01*
X128497437Y-88854498D01*
X128897993Y-88688582D01*
X129323219Y-88604000D01*
X129756781Y-88604000D01*
X130182007Y-88688582D01*
G37*
G36*
X80245443Y-90545519D02*
G01*
X80311627Y-90552037D01*
X80481466Y-90603557D01*
X80637991Y-90687222D01*
X80673729Y-90716552D01*
X80775186Y-90799814D01*
X80849585Y-90890471D01*
X80887778Y-90937009D01*
X80971443Y-91093534D01*
X81022963Y-91263373D01*
X81040359Y-91440000D01*
X81022963Y-91616627D01*
X80971443Y-91786466D01*
X80887778Y-91942991D01*
X80858448Y-91978729D01*
X80775186Y-92080186D01*
X80673729Y-92163448D01*
X80637991Y-92192778D01*
X80481466Y-92276443D01*
X80311627Y-92327963D01*
X80245443Y-92334481D01*
X80179260Y-92341000D01*
X79840740Y-92341000D01*
X79774557Y-92334481D01*
X79708373Y-92327963D01*
X79538534Y-92276443D01*
X79382009Y-92192778D01*
X79346271Y-92163448D01*
X79244814Y-92080186D01*
X79161552Y-91978729D01*
X79132222Y-91942991D01*
X79048557Y-91786466D01*
X78997037Y-91616627D01*
X78979641Y-91440000D01*
X78997037Y-91263373D01*
X79048557Y-91093534D01*
X79132222Y-90937009D01*
X79170415Y-90890471D01*
X79244814Y-90799814D01*
X79346271Y-90716552D01*
X79382009Y-90687222D01*
X79538534Y-90603557D01*
X79708373Y-90552037D01*
X79774557Y-90545519D01*
X79840740Y-90539000D01*
X80179260Y-90539000D01*
X80245443Y-90545519D01*
G37*
G36*
X94217142Y-89388242D02*
G01*
X94365101Y-89449529D01*
X94498255Y-89538499D01*
X94611501Y-89651745D01*
X94700471Y-89784899D01*
X94761758Y-89932858D01*
X94793000Y-90089925D01*
X94793000Y-90250075D01*
X94761758Y-90407142D01*
X94700471Y-90555101D01*
X94611501Y-90688255D01*
X94498255Y-90801501D01*
X94365101Y-90890471D01*
X94217142Y-90951758D01*
X94060075Y-90983000D01*
X93899925Y-90983000D01*
X93742858Y-90951758D01*
X93594899Y-90890471D01*
X93461745Y-90801501D01*
X93348499Y-90688255D01*
X93259529Y-90555101D01*
X93198242Y-90407142D01*
X93167000Y-90250075D01*
X93167000Y-90089925D01*
X93198242Y-89932858D01*
X93259529Y-89784899D01*
X93348499Y-89651745D01*
X93461745Y-89538499D01*
X93594899Y-89449529D01*
X93742858Y-89388242D01*
X93899925Y-89357000D01*
X94060075Y-89357000D01*
X94217142Y-89388242D01*
G37*
G36*
X181746626Y-86617037D02*
G01*
X181916465Y-86668557D01*
X181916467Y-86668558D01*
X182072989Y-86752221D01*
X182210186Y-86864814D01*
X182293448Y-86966271D01*
X182322778Y-87002009D01*
X182322779Y-87002011D01*
X182381433Y-87111743D01*
X182406443Y-87158534D01*
X182457963Y-87328373D01*
X182471000Y-87460742D01*
X182471000Y-87799257D01*
X182457963Y-87931626D01*
X182406443Y-88101466D01*
X182322778Y-88257991D01*
X182319897Y-88261501D01*
X182210186Y-88395186D01*
X182115250Y-88473097D01*
X182072991Y-88507778D01*
X181916466Y-88591443D01*
X181746627Y-88642963D01*
X181570000Y-88660359D01*
X181393374Y-88642963D01*
X181223535Y-88591443D01*
X181067010Y-88507778D01*
X180929815Y-88395185D01*
X180817222Y-88257991D01*
X180775390Y-88179729D01*
X180733558Y-88101468D01*
X180707359Y-88015101D01*
X180682037Y-87931627D01*
X180669000Y-87799258D01*
X180669000Y-87460743D01*
X180682037Y-87328374D01*
X180733557Y-87158535D01*
X180817222Y-87002010D01*
X180820103Y-86998499D01*
X180929814Y-86864814D01*
X181031271Y-86781552D01*
X181067009Y-86752222D01*
X181223534Y-86668557D01*
X181393373Y-86617037D01*
X181570000Y-86599641D01*
X181746626Y-86617037D01*
G37*
G36*
X176746626Y-86617037D02*
G01*
X176916465Y-86668557D01*
X176916467Y-86668558D01*
X177072989Y-86752221D01*
X177210186Y-86864814D01*
X177293448Y-86966271D01*
X177322778Y-87002009D01*
X177322779Y-87002011D01*
X177381433Y-87111743D01*
X177406443Y-87158534D01*
X177457963Y-87328373D01*
X177471000Y-87460742D01*
X177471000Y-87799257D01*
X177457963Y-87931626D01*
X177406443Y-88101466D01*
X177322778Y-88257991D01*
X177319897Y-88261501D01*
X177210186Y-88395186D01*
X177115250Y-88473097D01*
X177072991Y-88507778D01*
X176916466Y-88591443D01*
X176746627Y-88642963D01*
X176570000Y-88660359D01*
X176393374Y-88642963D01*
X176223535Y-88591443D01*
X176067010Y-88507778D01*
X175929815Y-88395185D01*
X175817222Y-88257991D01*
X175775390Y-88179729D01*
X175733558Y-88101468D01*
X175707359Y-88015101D01*
X175682037Y-87931627D01*
X175669000Y-87799258D01*
X175669000Y-87460743D01*
X175682037Y-87328374D01*
X175733557Y-87158535D01*
X175817222Y-87002010D01*
X175820103Y-86998499D01*
X175929814Y-86864814D01*
X176031271Y-86781552D01*
X176067009Y-86752222D01*
X176223534Y-86668557D01*
X176393373Y-86617037D01*
X176570000Y-86599641D01*
X176746626Y-86617037D01*
G37*
G36*
X179246626Y-86617037D02*
G01*
X179416465Y-86668557D01*
X179416467Y-86668558D01*
X179572989Y-86752221D01*
X179710186Y-86864814D01*
X179793448Y-86966271D01*
X179822778Y-87002009D01*
X179822779Y-87002011D01*
X179881433Y-87111743D01*
X179906443Y-87158534D01*
X179957963Y-87328373D01*
X179971000Y-87460742D01*
X179971000Y-87799257D01*
X179957963Y-87931626D01*
X179906443Y-88101466D01*
X179822778Y-88257991D01*
X179819897Y-88261501D01*
X179710186Y-88395186D01*
X179615250Y-88473097D01*
X179572991Y-88507778D01*
X179416466Y-88591443D01*
X179246627Y-88642963D01*
X179070000Y-88660359D01*
X178893374Y-88642963D01*
X178723535Y-88591443D01*
X178567010Y-88507778D01*
X178429815Y-88395185D01*
X178317222Y-88257991D01*
X178275390Y-88179729D01*
X178233558Y-88101468D01*
X178207359Y-88015101D01*
X178182037Y-87931627D01*
X178169000Y-87799258D01*
X178169000Y-87460743D01*
X178182037Y-87328374D01*
X178233557Y-87158535D01*
X178317222Y-87002010D01*
X178320103Y-86998499D01*
X178429814Y-86864814D01*
X178531271Y-86781552D01*
X178567009Y-86752222D01*
X178723534Y-86668557D01*
X178893373Y-86617037D01*
X179070000Y-86599641D01*
X179246626Y-86617037D01*
G37*
G36*
X174828600Y-86607989D02*
G01*
X174861652Y-86618015D01*
X174892103Y-86634292D01*
X174918799Y-86656201D01*
X174940708Y-86682897D01*
X174956985Y-86713348D01*
X174967011Y-86746400D01*
X174971000Y-86786903D01*
X174971000Y-88473097D01*
X174967011Y-88513600D01*
X174956985Y-88546652D01*
X174940708Y-88577103D01*
X174918799Y-88603799D01*
X174892103Y-88625708D01*
X174861652Y-88641985D01*
X174828600Y-88652011D01*
X174788097Y-88656000D01*
X173351903Y-88656000D01*
X173311400Y-88652011D01*
X173278348Y-88641985D01*
X173247897Y-88625708D01*
X173221201Y-88603799D01*
X173199292Y-88577103D01*
X173183015Y-88546652D01*
X173172989Y-88513600D01*
X173169000Y-88473097D01*
X173169000Y-86786903D01*
X173172989Y-86746400D01*
X173183015Y-86713348D01*
X173199292Y-86682897D01*
X173221201Y-86656201D01*
X173247897Y-86634292D01*
X173278348Y-86618015D01*
X173311400Y-86607989D01*
X173351903Y-86604000D01*
X174788097Y-86604000D01*
X174828600Y-86607989D01*
G37*
G36*
X94217142Y-86848242D02*
G01*
X94365101Y-86909529D01*
X94498255Y-86998499D01*
X94611501Y-87111745D01*
X94700471Y-87244899D01*
X94761758Y-87392858D01*
X94793000Y-87549925D01*
X94793000Y-87710075D01*
X94761758Y-87867142D01*
X94700471Y-88015101D01*
X94611501Y-88148255D01*
X94498255Y-88261501D01*
X94365101Y-88350471D01*
X94217142Y-88411758D01*
X94060075Y-88443000D01*
X93899925Y-88443000D01*
X93742858Y-88411758D01*
X93594899Y-88350471D01*
X93461745Y-88261501D01*
X93348499Y-88148255D01*
X93259529Y-88015101D01*
X93198242Y-87867142D01*
X93167000Y-87710075D01*
X93167000Y-87549925D01*
X93198242Y-87392858D01*
X93259529Y-87244899D01*
X93348499Y-87111745D01*
X93461745Y-86998499D01*
X93594899Y-86909529D01*
X93742858Y-86848242D01*
X93899925Y-86817000D01*
X94060075Y-86817000D01*
X94217142Y-86848242D01*
G37*
G36*
X94217142Y-84308242D02*
G01*
X94365101Y-84369529D01*
X94498255Y-84458499D01*
X94611501Y-84571745D01*
X94700471Y-84704899D01*
X94761758Y-84852858D01*
X94793000Y-85009925D01*
X94793000Y-85170075D01*
X94761758Y-85327142D01*
X94700471Y-85475101D01*
X94611501Y-85608255D01*
X94498255Y-85721501D01*
X94365101Y-85810471D01*
X94217142Y-85871758D01*
X94060075Y-85903000D01*
X93899925Y-85903000D01*
X93742858Y-85871758D01*
X93594899Y-85810471D01*
X93461745Y-85721501D01*
X93348499Y-85608255D01*
X93259529Y-85475101D01*
X93198242Y-85327142D01*
X93167000Y-85170075D01*
X93167000Y-85009925D01*
X93198242Y-84852858D01*
X93259529Y-84704899D01*
X93348499Y-84571745D01*
X93461745Y-84458499D01*
X93594899Y-84369529D01*
X93742858Y-84308242D01*
X93899925Y-84277000D01*
X94060075Y-84277000D01*
X94217142Y-84308242D01*
G37*
G36*
X80893600Y-82922989D02*
G01*
X80926652Y-82933015D01*
X80957103Y-82949292D01*
X80983799Y-82971201D01*
X81005708Y-82997897D01*
X81021985Y-83028348D01*
X81032011Y-83061400D01*
X81036000Y-83101903D01*
X81036000Y-84538097D01*
X81032011Y-84578600D01*
X81021985Y-84611652D01*
X81005708Y-84642103D01*
X80983799Y-84668799D01*
X80957103Y-84690708D01*
X80926652Y-84706985D01*
X80893600Y-84717011D01*
X80853097Y-84721000D01*
X79166903Y-84721000D01*
X79126400Y-84717011D01*
X79093348Y-84706985D01*
X79062897Y-84690708D01*
X79036201Y-84668799D01*
X79014292Y-84642103D01*
X78998015Y-84611652D01*
X78987989Y-84578600D01*
X78984000Y-84538097D01*
X78984000Y-83101903D01*
X78987989Y-83061400D01*
X78998015Y-83028348D01*
X79014292Y-82997897D01*
X79036201Y-82971201D01*
X79062897Y-82949292D01*
X79093348Y-82933015D01*
X79126400Y-82922989D01*
X79166903Y-82919000D01*
X80853097Y-82919000D01*
X80893600Y-82922989D01*
G37*
G36*
X119617142Y-83038242D02*
G01*
X119765101Y-83099529D01*
X119898255Y-83188499D01*
X120011501Y-83301745D01*
X120100471Y-83434899D01*
X120161758Y-83582858D01*
X120193000Y-83739925D01*
X120193000Y-83900075D01*
X120161758Y-84057142D01*
X120100471Y-84205101D01*
X120011501Y-84338255D01*
X119898255Y-84451501D01*
X119765101Y-84540471D01*
X119617142Y-84601758D01*
X119460075Y-84633000D01*
X119299925Y-84633000D01*
X119142858Y-84601758D01*
X118994899Y-84540471D01*
X118861745Y-84451501D01*
X118748499Y-84338255D01*
X118659529Y-84205101D01*
X118598242Y-84057142D01*
X118567000Y-83900075D01*
X118567000Y-83739925D01*
X118598242Y-83582858D01*
X118659529Y-83434899D01*
X118748499Y-83301745D01*
X118861745Y-83188499D01*
X118994899Y-83099529D01*
X119142858Y-83038242D01*
X119299925Y-83007000D01*
X119460075Y-83007000D01*
X119617142Y-83038242D01*
G37*
G36*
X124697142Y-83038242D02*
G01*
X124845101Y-83099529D01*
X124978255Y-83188499D01*
X125091501Y-83301745D01*
X125180471Y-83434899D01*
X125241758Y-83582858D01*
X125273000Y-83739925D01*
X125273000Y-83900075D01*
X125241758Y-84057142D01*
X125180471Y-84205101D01*
X125091501Y-84338255D01*
X124978255Y-84451501D01*
X124845101Y-84540471D01*
X124697142Y-84601758D01*
X124540075Y-84633000D01*
X124379925Y-84633000D01*
X124222858Y-84601758D01*
X124074899Y-84540471D01*
X123941745Y-84451501D01*
X123828499Y-84338255D01*
X123739529Y-84205101D01*
X123678242Y-84057142D01*
X123647000Y-83900075D01*
X123647000Y-83739925D01*
X123678242Y-83582858D01*
X123739529Y-83434899D01*
X123828499Y-83301745D01*
X123941745Y-83188499D01*
X124074899Y-83099529D01*
X124222858Y-83038242D01*
X124379925Y-83007000D01*
X124540075Y-83007000D01*
X124697142Y-83038242D01*
G37*
G36*
X127237142Y-83038242D02*
G01*
X127385101Y-83099529D01*
X127518255Y-83188499D01*
X127631501Y-83301745D01*
X127720471Y-83434899D01*
X127781758Y-83582858D01*
X127813000Y-83739925D01*
X127813000Y-83900075D01*
X127781758Y-84057142D01*
X127720471Y-84205101D01*
X127631501Y-84338255D01*
X127518255Y-84451501D01*
X127385101Y-84540471D01*
X127237142Y-84601758D01*
X127080075Y-84633000D01*
X126919925Y-84633000D01*
X126762858Y-84601758D01*
X126614899Y-84540471D01*
X126481745Y-84451501D01*
X126368499Y-84338255D01*
X126279529Y-84205101D01*
X126218242Y-84057142D01*
X126187000Y-83900075D01*
X126187000Y-83739925D01*
X126218242Y-83582858D01*
X126279529Y-83434899D01*
X126368499Y-83301745D01*
X126481745Y-83188499D01*
X126614899Y-83099529D01*
X126762858Y-83038242D01*
X126919925Y-83007000D01*
X127080075Y-83007000D01*
X127237142Y-83038242D01*
G37*
G36*
X122157142Y-83038242D02*
G01*
X122305101Y-83099529D01*
X122438255Y-83188499D01*
X122551501Y-83301745D01*
X122640471Y-83434899D01*
X122701758Y-83582858D01*
X122733000Y-83739925D01*
X122733000Y-83900075D01*
X122701758Y-84057142D01*
X122640471Y-84205101D01*
X122551501Y-84338255D01*
X122438255Y-84451501D01*
X122305101Y-84540471D01*
X122157142Y-84601758D01*
X122000075Y-84633000D01*
X121839925Y-84633000D01*
X121682858Y-84601758D01*
X121534899Y-84540471D01*
X121401745Y-84451501D01*
X121288499Y-84338255D01*
X121199529Y-84205101D01*
X121138242Y-84057142D01*
X121107000Y-83900075D01*
X121107000Y-83739925D01*
X121138242Y-83582858D01*
X121199529Y-83434899D01*
X121288499Y-83301745D01*
X121401745Y-83188499D01*
X121534899Y-83099529D01*
X121682858Y-83038242D01*
X121839925Y-83007000D01*
X122000075Y-83007000D01*
X122157142Y-83038242D01*
G37*
G36*
X94217142Y-81768242D02*
G01*
X94365101Y-81829529D01*
X94498255Y-81918499D01*
X94611501Y-82031745D01*
X94700471Y-82164899D01*
X94761758Y-82312858D01*
X94793000Y-82469925D01*
X94793000Y-82630075D01*
X94761758Y-82787142D01*
X94700471Y-82935101D01*
X94611501Y-83068255D01*
X94498255Y-83181501D01*
X94365101Y-83270471D01*
X94217142Y-83331758D01*
X94060075Y-83363000D01*
X93899925Y-83363000D01*
X93742858Y-83331758D01*
X93594899Y-83270471D01*
X93461745Y-83181501D01*
X93348499Y-83068255D01*
X93259529Y-82935101D01*
X93198242Y-82787142D01*
X93167000Y-82630075D01*
X93167000Y-82469925D01*
X93198242Y-82312858D01*
X93259529Y-82164899D01*
X93348499Y-82031745D01*
X93461745Y-81918499D01*
X93594899Y-81829529D01*
X93742858Y-81768242D01*
X93899925Y-81737000D01*
X94060075Y-81737000D01*
X94217142Y-81768242D01*
G37*
G36*
X107913254Y-79307818D02*
G01*
X108281103Y-79460186D01*
X108286513Y-79462427D01*
X108451666Y-79572779D01*
X108622436Y-79686884D01*
X108908116Y-79972564D01*
X109132574Y-80308489D01*
X109287182Y-80681746D01*
X109366000Y-81077993D01*
X109366000Y-81482007D01*
X109287182Y-81878254D01*
X109206607Y-82072779D01*
X109132573Y-82251513D01*
X108908116Y-82587436D01*
X108622436Y-82873116D01*
X108286513Y-83097573D01*
X108286512Y-83097574D01*
X108286511Y-83097574D01*
X107913254Y-83252182D01*
X107517007Y-83331000D01*
X107112993Y-83331000D01*
X106716746Y-83252182D01*
X106343489Y-83097574D01*
X106343488Y-83097574D01*
X106343487Y-83097573D01*
X106007564Y-82873116D01*
X105721884Y-82587436D01*
X105497427Y-82251513D01*
X105423393Y-82072779D01*
X105342818Y-81878254D01*
X105264000Y-81482007D01*
X105264000Y-81077993D01*
X105342818Y-80681746D01*
X105497426Y-80308489D01*
X105721884Y-79972564D01*
X106007564Y-79686884D01*
X106178334Y-79572779D01*
X106343487Y-79462427D01*
X106348897Y-79460186D01*
X106716746Y-79307818D01*
X107112993Y-79229000D01*
X107517007Y-79229000D01*
X107913254Y-79307818D01*
G37*
G36*
X80245443Y-80425519D02*
G01*
X80311627Y-80432037D01*
X80481466Y-80483557D01*
X80637991Y-80567222D01*
X80673729Y-80596552D01*
X80775186Y-80679814D01*
X80858448Y-80781271D01*
X80887778Y-80817009D01*
X80971443Y-80973534D01*
X81022963Y-81143373D01*
X81040359Y-81320000D01*
X81022963Y-81496627D01*
X80971443Y-81666466D01*
X80887778Y-81822991D01*
X80882412Y-81829529D01*
X80775186Y-81960186D01*
X80687992Y-82031743D01*
X80637991Y-82072778D01*
X80481466Y-82156443D01*
X80311627Y-82207963D01*
X80245442Y-82214482D01*
X80179260Y-82221000D01*
X79840740Y-82221000D01*
X79774558Y-82214482D01*
X79708373Y-82207963D01*
X79538534Y-82156443D01*
X79382009Y-82072778D01*
X79332008Y-82031743D01*
X79244814Y-81960186D01*
X79137588Y-81829529D01*
X79132222Y-81822991D01*
X79048557Y-81666466D01*
X78997037Y-81496627D01*
X78979641Y-81320000D01*
X78997037Y-81143373D01*
X79048557Y-80973534D01*
X79132222Y-80817009D01*
X79161552Y-80781271D01*
X79244814Y-80679814D01*
X79346271Y-80596552D01*
X79382009Y-80567222D01*
X79538534Y-80483557D01*
X79708373Y-80432037D01*
X79774557Y-80425519D01*
X79840740Y-80419000D01*
X80179260Y-80419000D01*
X80245443Y-80425519D01*
G37*
G36*
X80245443Y-77925519D02*
G01*
X80311627Y-77932037D01*
X80481466Y-77983557D01*
X80637991Y-78067222D01*
X80673729Y-78096552D01*
X80775186Y-78179814D01*
X80858448Y-78281271D01*
X80887778Y-78317009D01*
X80971443Y-78473534D01*
X81022963Y-78643373D01*
X81040359Y-78820000D01*
X81022963Y-78996627D01*
X80971443Y-79166466D01*
X80887778Y-79322991D01*
X80858448Y-79358729D01*
X80775186Y-79460186D01*
X80673729Y-79543448D01*
X80637991Y-79572778D01*
X80481466Y-79656443D01*
X80311627Y-79707963D01*
X80245442Y-79714482D01*
X80179260Y-79721000D01*
X79840740Y-79721000D01*
X79774558Y-79714482D01*
X79708373Y-79707963D01*
X79538534Y-79656443D01*
X79382009Y-79572778D01*
X79346271Y-79543448D01*
X79244814Y-79460186D01*
X79161552Y-79358729D01*
X79132222Y-79322991D01*
X79048557Y-79166466D01*
X78997037Y-78996627D01*
X78979641Y-78820000D01*
X78997037Y-78643373D01*
X79048557Y-78473534D01*
X79132222Y-78317009D01*
X79161552Y-78281271D01*
X79244814Y-78179814D01*
X79346271Y-78096552D01*
X79382009Y-78067222D01*
X79538534Y-77983557D01*
X79708373Y-77932037D01*
X79774557Y-77925519D01*
X79840740Y-77919000D01*
X80179260Y-77919000D01*
X80245443Y-77925519D01*
G37*
G36*
X181666626Y-76457037D02*
G01*
X181836465Y-76508557D01*
X181836467Y-76508558D01*
X181992989Y-76592221D01*
X182130186Y-76704814D01*
X182213448Y-76806271D01*
X182242778Y-76842009D01*
X182326443Y-76998534D01*
X182377963Y-77168373D01*
X182391000Y-77300742D01*
X182391000Y-77639257D01*
X182377963Y-77771626D01*
X182326443Y-77941466D01*
X182242778Y-78097991D01*
X182213448Y-78133729D01*
X182130186Y-78235186D01*
X182035250Y-78313097D01*
X181992991Y-78347778D01*
X181836466Y-78431443D01*
X181666627Y-78482963D01*
X181490000Y-78500359D01*
X181313374Y-78482963D01*
X181143535Y-78431443D01*
X180987010Y-78347778D01*
X180849815Y-78235185D01*
X180737222Y-78097991D01*
X180653557Y-77941466D01*
X180602037Y-77771627D01*
X180589000Y-77639258D01*
X180589000Y-77300743D01*
X180602037Y-77168374D01*
X180653557Y-76998535D01*
X180653559Y-76998532D01*
X180737221Y-76842011D01*
X180849814Y-76704814D01*
X180951271Y-76621552D01*
X180987009Y-76592222D01*
X181143534Y-76508557D01*
X181313373Y-76457037D01*
X181490000Y-76439641D01*
X181666626Y-76457037D01*
G37*
G36*
X179166626Y-76457037D02*
G01*
X179336465Y-76508557D01*
X179336467Y-76508558D01*
X179492989Y-76592221D01*
X179630186Y-76704814D01*
X179713448Y-76806271D01*
X179742778Y-76842009D01*
X179826443Y-76998534D01*
X179877963Y-77168373D01*
X179891000Y-77300742D01*
X179891000Y-77639257D01*
X179877963Y-77771626D01*
X179826443Y-77941466D01*
X179742778Y-78097991D01*
X179713448Y-78133729D01*
X179630186Y-78235186D01*
X179535250Y-78313097D01*
X179492991Y-78347778D01*
X179336466Y-78431443D01*
X179166627Y-78482963D01*
X178990000Y-78500359D01*
X178813374Y-78482963D01*
X178643535Y-78431443D01*
X178487010Y-78347778D01*
X178349815Y-78235185D01*
X178237222Y-78097991D01*
X178153557Y-77941466D01*
X178102037Y-77771627D01*
X178089000Y-77639258D01*
X178089000Y-77300743D01*
X178102037Y-77168374D01*
X178153557Y-76998535D01*
X178153559Y-76998532D01*
X178237221Y-76842011D01*
X178349814Y-76704814D01*
X178451271Y-76621552D01*
X178487009Y-76592222D01*
X178643534Y-76508557D01*
X178813373Y-76457037D01*
X178990000Y-76439641D01*
X179166626Y-76457037D01*
G37*
G36*
X176666626Y-76457037D02*
G01*
X176836465Y-76508557D01*
X176836467Y-76508558D01*
X176992989Y-76592221D01*
X177130186Y-76704814D01*
X177213448Y-76806271D01*
X177242778Y-76842009D01*
X177326443Y-76998534D01*
X177377963Y-77168373D01*
X177391000Y-77300742D01*
X177391000Y-77639257D01*
X177377963Y-77771626D01*
X177326443Y-77941466D01*
X177242778Y-78097991D01*
X177213448Y-78133729D01*
X177130186Y-78235186D01*
X177035250Y-78313097D01*
X176992991Y-78347778D01*
X176836466Y-78431443D01*
X176666627Y-78482963D01*
X176490000Y-78500359D01*
X176313374Y-78482963D01*
X176143535Y-78431443D01*
X175987010Y-78347778D01*
X175849815Y-78235185D01*
X175737222Y-78097991D01*
X175653557Y-77941466D01*
X175602037Y-77771627D01*
X175589000Y-77639258D01*
X175589000Y-77300743D01*
X175602037Y-77168374D01*
X175653557Y-76998535D01*
X175653559Y-76998532D01*
X175737221Y-76842011D01*
X175849814Y-76704814D01*
X175951271Y-76621552D01*
X175987009Y-76592222D01*
X176143534Y-76508557D01*
X176313373Y-76457037D01*
X176490000Y-76439641D01*
X176666626Y-76457037D01*
G37*
G36*
X174748600Y-76447989D02*
G01*
X174781652Y-76458015D01*
X174812103Y-76474292D01*
X174838799Y-76496201D01*
X174860708Y-76522897D01*
X174876985Y-76553348D01*
X174887011Y-76586400D01*
X174891000Y-76626903D01*
X174891000Y-78313097D01*
X174887011Y-78353600D01*
X174876985Y-78386652D01*
X174860708Y-78417103D01*
X174838799Y-78443799D01*
X174812103Y-78465708D01*
X174781652Y-78481985D01*
X174748600Y-78492011D01*
X174708097Y-78496000D01*
X173271903Y-78496000D01*
X173231400Y-78492011D01*
X173198348Y-78481985D01*
X173167897Y-78465708D01*
X173141201Y-78443799D01*
X173119292Y-78417103D01*
X173103015Y-78386652D01*
X173092989Y-78353600D01*
X173089000Y-78313097D01*
X173089000Y-76626903D01*
X173092989Y-76586400D01*
X173103015Y-76553348D01*
X173119292Y-76522897D01*
X173141201Y-76496201D01*
X173167897Y-76474292D01*
X173198348Y-76458015D01*
X173231400Y-76447989D01*
X173271903Y-76444000D01*
X174708097Y-76444000D01*
X174748600Y-76447989D01*
G37*
G36*
X166607142Y-75418242D02*
G01*
X166755101Y-75479529D01*
X166888255Y-75568499D01*
X167001501Y-75681745D01*
X167090471Y-75814899D01*
X167151758Y-75962858D01*
X167183000Y-76119925D01*
X167183000Y-76280075D01*
X167151758Y-76437142D01*
X167090471Y-76585101D01*
X167001501Y-76718255D01*
X166888255Y-76831501D01*
X166755101Y-76920471D01*
X166607142Y-76981758D01*
X166450075Y-77013000D01*
X166289925Y-77013000D01*
X166132858Y-76981758D01*
X165984899Y-76920471D01*
X165851745Y-76831501D01*
X165738499Y-76718255D01*
X165649529Y-76585101D01*
X165588242Y-76437142D01*
X165557000Y-76280075D01*
X165557000Y-76119925D01*
X165588242Y-75962858D01*
X165649529Y-75814899D01*
X165738499Y-75681745D01*
X165851745Y-75568499D01*
X165984899Y-75479529D01*
X166132858Y-75418242D01*
X166289925Y-75387000D01*
X166450075Y-75387000D01*
X166607142Y-75418242D01*
G37*
G36*
X164067142Y-75418242D02*
G01*
X164215101Y-75479529D01*
X164348255Y-75568499D01*
X164461501Y-75681745D01*
X164550471Y-75814899D01*
X164611758Y-75962858D01*
X164643000Y-76119925D01*
X164643000Y-76280075D01*
X164611758Y-76437142D01*
X164550471Y-76585101D01*
X164461501Y-76718255D01*
X164348255Y-76831501D01*
X164215101Y-76920471D01*
X164067142Y-76981758D01*
X163910075Y-77013000D01*
X163749925Y-77013000D01*
X163592858Y-76981758D01*
X163444899Y-76920471D01*
X163311745Y-76831501D01*
X163198499Y-76718255D01*
X163109529Y-76585101D01*
X163048242Y-76437142D01*
X163017000Y-76280075D01*
X163017000Y-76119925D01*
X163048242Y-75962858D01*
X163109529Y-75814899D01*
X163198499Y-75681745D01*
X163311745Y-75568499D01*
X163444899Y-75479529D01*
X163592858Y-75418242D01*
X163749925Y-75387000D01*
X163910075Y-75387000D01*
X164067142Y-75418242D01*
G37*
G36*
X141207142Y-75418242D02*
G01*
X141355101Y-75479529D01*
X141488255Y-75568499D01*
X141601501Y-75681745D01*
X141690471Y-75814899D01*
X141751758Y-75962858D01*
X141783000Y-76119925D01*
X141783000Y-76280075D01*
X141751758Y-76437142D01*
X141690471Y-76585101D01*
X141601501Y-76718255D01*
X141488255Y-76831501D01*
X141355101Y-76920471D01*
X141207142Y-76981758D01*
X141050075Y-77013000D01*
X140889925Y-77013000D01*
X140732858Y-76981758D01*
X140584899Y-76920471D01*
X140451745Y-76831501D01*
X140338499Y-76718255D01*
X140249529Y-76585101D01*
X140188242Y-76437142D01*
X140157000Y-76280075D01*
X140157000Y-76119925D01*
X140188242Y-75962858D01*
X140249529Y-75814899D01*
X140338499Y-75681745D01*
X140451745Y-75568499D01*
X140584899Y-75479529D01*
X140732858Y-75418242D01*
X140889925Y-75387000D01*
X141050075Y-75387000D01*
X141207142Y-75418242D01*
G37*
G36*
X138667142Y-75418242D02*
G01*
X138815101Y-75479529D01*
X138948255Y-75568499D01*
X139061501Y-75681745D01*
X139150471Y-75814899D01*
X139211758Y-75962858D01*
X139243000Y-76119925D01*
X139243000Y-76280075D01*
X139211758Y-76437142D01*
X139150471Y-76585101D01*
X139061501Y-76718255D01*
X138948255Y-76831501D01*
X138815101Y-76920471D01*
X138667142Y-76981758D01*
X138510075Y-77013000D01*
X138349925Y-77013000D01*
X138192858Y-76981758D01*
X138044899Y-76920471D01*
X137911745Y-76831501D01*
X137798499Y-76718255D01*
X137709529Y-76585101D01*
X137648242Y-76437142D01*
X137617000Y-76280075D01*
X137617000Y-76119925D01*
X137648242Y-75962858D01*
X137709529Y-75814899D01*
X137798499Y-75681745D01*
X137911745Y-75568499D01*
X138044899Y-75479529D01*
X138192858Y-75418242D01*
X138349925Y-75387000D01*
X138510075Y-75387000D01*
X138667142Y-75418242D01*
G37*
G36*
X164067142Y-72878242D02*
G01*
X164215101Y-72939529D01*
X164348255Y-73028499D01*
X164461501Y-73141745D01*
X164550471Y-73274899D01*
X164611758Y-73422858D01*
X164643000Y-73579925D01*
X164643000Y-73740075D01*
X164611758Y-73897142D01*
X164550471Y-74045101D01*
X164461501Y-74178255D01*
X164348255Y-74291501D01*
X164215101Y-74380471D01*
X164067142Y-74441758D01*
X163910075Y-74473000D01*
X163749925Y-74473000D01*
X163592858Y-74441758D01*
X163444899Y-74380471D01*
X163311745Y-74291501D01*
X163198499Y-74178255D01*
X163109529Y-74045101D01*
X163048242Y-73897142D01*
X163017000Y-73740075D01*
X163017000Y-73579925D01*
X163048242Y-73422858D01*
X163109529Y-73274899D01*
X163198499Y-73141745D01*
X163311745Y-73028499D01*
X163444899Y-72939529D01*
X163592858Y-72878242D01*
X163749925Y-72847000D01*
X163910075Y-72847000D01*
X164067142Y-72878242D01*
G37*
G36*
X141207142Y-72878242D02*
G01*
X141355101Y-72939529D01*
X141488255Y-73028499D01*
X141601501Y-73141745D01*
X141690471Y-73274899D01*
X141751758Y-73422858D01*
X141783000Y-73579925D01*
X141783000Y-73740075D01*
X141751758Y-73897142D01*
X141690471Y-74045101D01*
X141601501Y-74178255D01*
X141488255Y-74291501D01*
X141355101Y-74380471D01*
X141207142Y-74441758D01*
X141050075Y-74473000D01*
X140889925Y-74473000D01*
X140732858Y-74441758D01*
X140584899Y-74380471D01*
X140451745Y-74291501D01*
X140338499Y-74178255D01*
X140249529Y-74045101D01*
X140188242Y-73897142D01*
X140157000Y-73740075D01*
X140157000Y-73579925D01*
X140188242Y-73422858D01*
X140249529Y-73274899D01*
X140338499Y-73141745D01*
X140451745Y-73028499D01*
X140584899Y-72939529D01*
X140732858Y-72878242D01*
X140889925Y-72847000D01*
X141050075Y-72847000D01*
X141207142Y-72878242D01*
G37*
G36*
X138667142Y-72878242D02*
G01*
X138815101Y-72939529D01*
X138948255Y-73028499D01*
X139061501Y-73141745D01*
X139150471Y-73274899D01*
X139211758Y-73422858D01*
X139243000Y-73579925D01*
X139243000Y-73740075D01*
X139211758Y-73897142D01*
X139150471Y-74045101D01*
X139061501Y-74178255D01*
X138948255Y-74291501D01*
X138815101Y-74380471D01*
X138667142Y-74441758D01*
X138510075Y-74473000D01*
X138349925Y-74473000D01*
X138192858Y-74441758D01*
X138044899Y-74380471D01*
X137911745Y-74291501D01*
X137798499Y-74178255D01*
X137709529Y-74045101D01*
X137648242Y-73897142D01*
X137617000Y-73740075D01*
X137617000Y-73579925D01*
X137648242Y-73422858D01*
X137709529Y-73274899D01*
X137798499Y-73141745D01*
X137911745Y-73028499D01*
X138044899Y-72939529D01*
X138192858Y-72878242D01*
X138349925Y-72847000D01*
X138510075Y-72847000D01*
X138667142Y-72878242D01*
G37*
G36*
X166607142Y-72878242D02*
G01*
X166755101Y-72939529D01*
X166888255Y-73028499D01*
X167001501Y-73141745D01*
X167090471Y-73274899D01*
X167151758Y-73422858D01*
X167183000Y-73579925D01*
X167183000Y-73740075D01*
X167151758Y-73897142D01*
X167090471Y-74045101D01*
X167001501Y-74178255D01*
X166888255Y-74291501D01*
X166755101Y-74380471D01*
X166607142Y-74441758D01*
X166450075Y-74473000D01*
X166289925Y-74473000D01*
X166132858Y-74441758D01*
X165984899Y-74380471D01*
X165851745Y-74291501D01*
X165738499Y-74178255D01*
X165649529Y-74045101D01*
X165588242Y-73897142D01*
X165557000Y-73740075D01*
X165557000Y-73579925D01*
X165588242Y-73422858D01*
X165649529Y-73274899D01*
X165738499Y-73141745D01*
X165851745Y-73028499D01*
X165984899Y-72939529D01*
X166132858Y-72878242D01*
X166289925Y-72847000D01*
X166450075Y-72847000D01*
X166607142Y-72878242D01*
G37*
G36*
X141207142Y-70338242D02*
G01*
X141355101Y-70399529D01*
X141488255Y-70488499D01*
X141601501Y-70601745D01*
X141690471Y-70734899D01*
X141751758Y-70882858D01*
X141783000Y-71039925D01*
X141783000Y-71200075D01*
X141751758Y-71357142D01*
X141690471Y-71505101D01*
X141601501Y-71638255D01*
X141488255Y-71751501D01*
X141355101Y-71840471D01*
X141207142Y-71901758D01*
X141050075Y-71933000D01*
X140889925Y-71933000D01*
X140732858Y-71901758D01*
X140584899Y-71840471D01*
X140451745Y-71751501D01*
X140338499Y-71638255D01*
X140249529Y-71505101D01*
X140188242Y-71357142D01*
X140157000Y-71200075D01*
X140157000Y-71039925D01*
X140188242Y-70882858D01*
X140249529Y-70734899D01*
X140338499Y-70601745D01*
X140451745Y-70488499D01*
X140584899Y-70399529D01*
X140732858Y-70338242D01*
X140889925Y-70307000D01*
X141050075Y-70307000D01*
X141207142Y-70338242D01*
G37*
G36*
X164067142Y-70338242D02*
G01*
X164215101Y-70399529D01*
X164348255Y-70488499D01*
X164461501Y-70601745D01*
X164550471Y-70734899D01*
X164611758Y-70882858D01*
X164643000Y-71039925D01*
X164643000Y-71200075D01*
X164611758Y-71357142D01*
X164550471Y-71505101D01*
X164461501Y-71638255D01*
X164348255Y-71751501D01*
X164215101Y-71840471D01*
X164067142Y-71901758D01*
X163910075Y-71933000D01*
X163749925Y-71933000D01*
X163592858Y-71901758D01*
X163444899Y-71840471D01*
X163311745Y-71751501D01*
X163198499Y-71638255D01*
X163109529Y-71505101D01*
X163048242Y-71357142D01*
X163017000Y-71200075D01*
X163017000Y-71039925D01*
X163048242Y-70882858D01*
X163109529Y-70734899D01*
X163198499Y-70601745D01*
X163311745Y-70488499D01*
X163444899Y-70399529D01*
X163592858Y-70338242D01*
X163749925Y-70307000D01*
X163910075Y-70307000D01*
X164067142Y-70338242D01*
G37*
G36*
X138667142Y-70338242D02*
G01*
X138815101Y-70399529D01*
X138948255Y-70488499D01*
X139061501Y-70601745D01*
X139150471Y-70734899D01*
X139211758Y-70882858D01*
X139243000Y-71039925D01*
X139243000Y-71200075D01*
X139211758Y-71357142D01*
X139150471Y-71505101D01*
X139061501Y-71638255D01*
X138948255Y-71751501D01*
X138815101Y-71840471D01*
X138667142Y-71901758D01*
X138510075Y-71933000D01*
X138349925Y-71933000D01*
X138192858Y-71901758D01*
X138044899Y-71840471D01*
X137911745Y-71751501D01*
X137798499Y-71638255D01*
X137709529Y-71505101D01*
X137648242Y-71357142D01*
X137617000Y-71200075D01*
X137617000Y-71039925D01*
X137648242Y-70882858D01*
X137709529Y-70734899D01*
X137798499Y-70601745D01*
X137911745Y-70488499D01*
X138044899Y-70399529D01*
X138192858Y-70338242D01*
X138349925Y-70307000D01*
X138510075Y-70307000D01*
X138667142Y-70338242D01*
G37*
G36*
X166607142Y-70338242D02*
G01*
X166755101Y-70399529D01*
X166888255Y-70488499D01*
X167001501Y-70601745D01*
X167090471Y-70734899D01*
X167151758Y-70882858D01*
X167183000Y-71039925D01*
X167183000Y-71200075D01*
X167151758Y-71357142D01*
X167090471Y-71505101D01*
X167001501Y-71638255D01*
X166888255Y-71751501D01*
X166755101Y-71840471D01*
X166607142Y-71901758D01*
X166450075Y-71933000D01*
X166289925Y-71933000D01*
X166132858Y-71901758D01*
X165984899Y-71840471D01*
X165851745Y-71751501D01*
X165738499Y-71638255D01*
X165649529Y-71505101D01*
X165588242Y-71357142D01*
X165557000Y-71200075D01*
X165557000Y-71039925D01*
X165588242Y-70882858D01*
X165649529Y-70734899D01*
X165738499Y-70601745D01*
X165851745Y-70488499D01*
X165984899Y-70399529D01*
X166132858Y-70338242D01*
X166289925Y-70307000D01*
X166450075Y-70307000D01*
X166607142Y-70338242D01*
G37*
G36*
X141207142Y-67798242D02*
G01*
X141355101Y-67859529D01*
X141488255Y-67948499D01*
X141601501Y-68061745D01*
X141690471Y-68194899D01*
X141751758Y-68342858D01*
X141783000Y-68499925D01*
X141783000Y-68660075D01*
X141751758Y-68817142D01*
X141690471Y-68965101D01*
X141601501Y-69098255D01*
X141488255Y-69211501D01*
X141355101Y-69300471D01*
X141207142Y-69361758D01*
X141050075Y-69393000D01*
X140889925Y-69393000D01*
X140732858Y-69361758D01*
X140584899Y-69300471D01*
X140451745Y-69211501D01*
X140338499Y-69098255D01*
X140249529Y-68965101D01*
X140188242Y-68817142D01*
X140157000Y-68660075D01*
X140157000Y-68499925D01*
X140188242Y-68342858D01*
X140249529Y-68194899D01*
X140338499Y-68061745D01*
X140451745Y-67948499D01*
X140584899Y-67859529D01*
X140732858Y-67798242D01*
X140889925Y-67767000D01*
X141050075Y-67767000D01*
X141207142Y-67798242D01*
G37*
G36*
X166607142Y-67798242D02*
G01*
X166755101Y-67859529D01*
X166888255Y-67948499D01*
X167001501Y-68061745D01*
X167090471Y-68194899D01*
X167151758Y-68342858D01*
X167183000Y-68499925D01*
X167183000Y-68660075D01*
X167151758Y-68817142D01*
X167090471Y-68965101D01*
X167001501Y-69098255D01*
X166888255Y-69211501D01*
X166755101Y-69300471D01*
X166607142Y-69361758D01*
X166450075Y-69393000D01*
X166289925Y-69393000D01*
X166132858Y-69361758D01*
X165984899Y-69300471D01*
X165851745Y-69211501D01*
X165738499Y-69098255D01*
X165649529Y-68965101D01*
X165588242Y-68817142D01*
X165557000Y-68660075D01*
X165557000Y-68499925D01*
X165588242Y-68342858D01*
X165649529Y-68194899D01*
X165738499Y-68061745D01*
X165851745Y-67948499D01*
X165984899Y-67859529D01*
X166132858Y-67798242D01*
X166289925Y-67767000D01*
X166450075Y-67767000D01*
X166607142Y-67798242D01*
G37*
G36*
X164067142Y-67798242D02*
G01*
X164215101Y-67859529D01*
X164348255Y-67948499D01*
X164461501Y-68061745D01*
X164550471Y-68194899D01*
X164611758Y-68342858D01*
X164643000Y-68499925D01*
X164643000Y-68660075D01*
X164611758Y-68817142D01*
X164550471Y-68965101D01*
X164461501Y-69098255D01*
X164348255Y-69211501D01*
X164215101Y-69300471D01*
X164067142Y-69361758D01*
X163910075Y-69393000D01*
X163749925Y-69393000D01*
X163592858Y-69361758D01*
X163444899Y-69300471D01*
X163311745Y-69211501D01*
X163198499Y-69098255D01*
X163109529Y-68965101D01*
X163048242Y-68817142D01*
X163017000Y-68660075D01*
X163017000Y-68499925D01*
X163048242Y-68342858D01*
X163109529Y-68194899D01*
X163198499Y-68061745D01*
X163311745Y-67948499D01*
X163444899Y-67859529D01*
X163592858Y-67798242D01*
X163749925Y-67767000D01*
X163910075Y-67767000D01*
X164067142Y-67798242D01*
G37*
G36*
X138667142Y-67798242D02*
G01*
X138815101Y-67859529D01*
X138948255Y-67948499D01*
X139061501Y-68061745D01*
X139150471Y-68194899D01*
X139211758Y-68342858D01*
X139243000Y-68499925D01*
X139243000Y-68660075D01*
X139211758Y-68817142D01*
X139150471Y-68965101D01*
X139061501Y-69098255D01*
X138948255Y-69211501D01*
X138815101Y-69300471D01*
X138667142Y-69361758D01*
X138510075Y-69393000D01*
X138349925Y-69393000D01*
X138192858Y-69361758D01*
X138044899Y-69300471D01*
X137911745Y-69211501D01*
X137798499Y-69098255D01*
X137709529Y-68965101D01*
X137648242Y-68817142D01*
X137617000Y-68660075D01*
X137617000Y-68499925D01*
X137648242Y-68342858D01*
X137709529Y-68194899D01*
X137798499Y-68061745D01*
X137911745Y-67948499D01*
X138044899Y-67859529D01*
X138192858Y-67798242D01*
X138349925Y-67767000D01*
X138510075Y-67767000D01*
X138667142Y-67798242D01*
G37*
G36*
X181666626Y-66297037D02*
G01*
X181836465Y-66348557D01*
X181836467Y-66348558D01*
X181992989Y-66432221D01*
X182130186Y-66544814D01*
X182213448Y-66646271D01*
X182242778Y-66682009D01*
X182326443Y-66838534D01*
X182377963Y-67008373D01*
X182391000Y-67140742D01*
X182391000Y-67479257D01*
X182377963Y-67611626D01*
X182326443Y-67781466D01*
X182242778Y-67937991D01*
X182213448Y-67973729D01*
X182130186Y-68075186D01*
X182035250Y-68153097D01*
X181992991Y-68187778D01*
X181836466Y-68271443D01*
X181666627Y-68322963D01*
X181490000Y-68340359D01*
X181313374Y-68322963D01*
X181143535Y-68271443D01*
X180987010Y-68187778D01*
X180849815Y-68075185D01*
X180737222Y-67937991D01*
X180653557Y-67781466D01*
X180602037Y-67611627D01*
X180589000Y-67479258D01*
X180589000Y-67140743D01*
X180602037Y-67008374D01*
X180653557Y-66838535D01*
X180653559Y-66838532D01*
X180737221Y-66682011D01*
X180849814Y-66544814D01*
X180951271Y-66461552D01*
X180987009Y-66432222D01*
X181143534Y-66348557D01*
X181313373Y-66297037D01*
X181490000Y-66279641D01*
X181666626Y-66297037D01*
G37*
G36*
X176666626Y-66297037D02*
G01*
X176836465Y-66348557D01*
X176836467Y-66348558D01*
X176992989Y-66432221D01*
X177130186Y-66544814D01*
X177213448Y-66646271D01*
X177242778Y-66682009D01*
X177326443Y-66838534D01*
X177377963Y-67008373D01*
X177391000Y-67140742D01*
X177391000Y-67479257D01*
X177377963Y-67611626D01*
X177326443Y-67781466D01*
X177242778Y-67937991D01*
X177213448Y-67973729D01*
X177130186Y-68075186D01*
X177035250Y-68153097D01*
X176992991Y-68187778D01*
X176836466Y-68271443D01*
X176666627Y-68322963D01*
X176490000Y-68340359D01*
X176313374Y-68322963D01*
X176143535Y-68271443D01*
X175987010Y-68187778D01*
X175849815Y-68075185D01*
X175737222Y-67937991D01*
X175653557Y-67781466D01*
X175602037Y-67611627D01*
X175589000Y-67479258D01*
X175589000Y-67140743D01*
X175602037Y-67008374D01*
X175653557Y-66838535D01*
X175653559Y-66838532D01*
X175737221Y-66682011D01*
X175849814Y-66544814D01*
X175951271Y-66461552D01*
X175987009Y-66432222D01*
X176143534Y-66348557D01*
X176313373Y-66297037D01*
X176490000Y-66279641D01*
X176666626Y-66297037D01*
G37*
G36*
X179166626Y-66297037D02*
G01*
X179336465Y-66348557D01*
X179336467Y-66348558D01*
X179492989Y-66432221D01*
X179630186Y-66544814D01*
X179713448Y-66646271D01*
X179742778Y-66682009D01*
X179826443Y-66838534D01*
X179877963Y-67008373D01*
X179891000Y-67140742D01*
X179891000Y-67479257D01*
X179877963Y-67611626D01*
X179826443Y-67781466D01*
X179742778Y-67937991D01*
X179713448Y-67973729D01*
X179630186Y-68075186D01*
X179535250Y-68153097D01*
X179492991Y-68187778D01*
X179336466Y-68271443D01*
X179166627Y-68322963D01*
X178990000Y-68340359D01*
X178813374Y-68322963D01*
X178643535Y-68271443D01*
X178487010Y-68187778D01*
X178349815Y-68075185D01*
X178237222Y-67937991D01*
X178153557Y-67781466D01*
X178102037Y-67611627D01*
X178089000Y-67479258D01*
X178089000Y-67140743D01*
X178102037Y-67008374D01*
X178153557Y-66838535D01*
X178153559Y-66838532D01*
X178237221Y-66682011D01*
X178349814Y-66544814D01*
X178451271Y-66461552D01*
X178487009Y-66432222D01*
X178643534Y-66348557D01*
X178813373Y-66297037D01*
X178990000Y-66279641D01*
X179166626Y-66297037D01*
G37*
G36*
X174748600Y-66287989D02*
G01*
X174781652Y-66298015D01*
X174812103Y-66314292D01*
X174838799Y-66336201D01*
X174860708Y-66362897D01*
X174876985Y-66393348D01*
X174887011Y-66426400D01*
X174891000Y-66466903D01*
X174891000Y-68153097D01*
X174887011Y-68193600D01*
X174876985Y-68226652D01*
X174860708Y-68257103D01*
X174838799Y-68283799D01*
X174812103Y-68305708D01*
X174781652Y-68321985D01*
X174748600Y-68332011D01*
X174708097Y-68336000D01*
X173271903Y-68336000D01*
X173231400Y-68332011D01*
X173198348Y-68321985D01*
X173167897Y-68305708D01*
X173141201Y-68283799D01*
X173119292Y-68257103D01*
X173103015Y-68226652D01*
X173092989Y-68193600D01*
X173089000Y-68153097D01*
X173089000Y-66466903D01*
X173092989Y-66426400D01*
X173103015Y-66393348D01*
X173119292Y-66362897D01*
X173141201Y-66336201D01*
X173167897Y-66314292D01*
X173198348Y-66298015D01*
X173231400Y-66287989D01*
X173271903Y-66284000D01*
X174708097Y-66284000D01*
X174748600Y-66287989D01*
G37*
G36*
X164067142Y-65258242D02*
G01*
X164215101Y-65319529D01*
X164348255Y-65408499D01*
X164461501Y-65521745D01*
X164550471Y-65654899D01*
X164611758Y-65802858D01*
X164643000Y-65959925D01*
X164643000Y-66120075D01*
X164611758Y-66277142D01*
X164550471Y-66425101D01*
X164461501Y-66558255D01*
X164348255Y-66671501D01*
X164215101Y-66760471D01*
X164067142Y-66821758D01*
X163910075Y-66853000D01*
X163749925Y-66853000D01*
X163592858Y-66821758D01*
X163444899Y-66760471D01*
X163311745Y-66671501D01*
X163198499Y-66558255D01*
X163109529Y-66425101D01*
X163048242Y-66277142D01*
X163017000Y-66120075D01*
X163017000Y-65959925D01*
X163048242Y-65802858D01*
X163109529Y-65654899D01*
X163198499Y-65521745D01*
X163311745Y-65408499D01*
X163444899Y-65319529D01*
X163592858Y-65258242D01*
X163749925Y-65227000D01*
X163910075Y-65227000D01*
X164067142Y-65258242D01*
G37*
G36*
X141207142Y-65258242D02*
G01*
X141355101Y-65319529D01*
X141488255Y-65408499D01*
X141601501Y-65521745D01*
X141690471Y-65654899D01*
X141751758Y-65802858D01*
X141783000Y-65959925D01*
X141783000Y-66120075D01*
X141751758Y-66277142D01*
X141690471Y-66425101D01*
X141601501Y-66558255D01*
X141488255Y-66671501D01*
X141355101Y-66760471D01*
X141207142Y-66821758D01*
X141050075Y-66853000D01*
X140889925Y-66853000D01*
X140732858Y-66821758D01*
X140584899Y-66760471D01*
X140451745Y-66671501D01*
X140338499Y-66558255D01*
X140249529Y-66425101D01*
X140188242Y-66277142D01*
X140157000Y-66120075D01*
X140157000Y-65959925D01*
X140188242Y-65802858D01*
X140249529Y-65654899D01*
X140338499Y-65521745D01*
X140451745Y-65408499D01*
X140584899Y-65319529D01*
X140732858Y-65258242D01*
X140889925Y-65227000D01*
X141050075Y-65227000D01*
X141207142Y-65258242D01*
G37*
G36*
X138667142Y-65258242D02*
G01*
X138815101Y-65319529D01*
X138948255Y-65408499D01*
X139061501Y-65521745D01*
X139150471Y-65654899D01*
X139211758Y-65802858D01*
X139243000Y-65959925D01*
X139243000Y-66120075D01*
X139211758Y-66277142D01*
X139150471Y-66425101D01*
X139061501Y-66558255D01*
X138948255Y-66671501D01*
X138815101Y-66760471D01*
X138667142Y-66821758D01*
X138510075Y-66853000D01*
X138349925Y-66853000D01*
X138192858Y-66821758D01*
X138044899Y-66760471D01*
X137911745Y-66671501D01*
X137798499Y-66558255D01*
X137709529Y-66425101D01*
X137648242Y-66277142D01*
X137617000Y-66120075D01*
X137617000Y-65959925D01*
X137648242Y-65802858D01*
X137709529Y-65654899D01*
X137798499Y-65521745D01*
X137911745Y-65408499D01*
X138044899Y-65319529D01*
X138192858Y-65258242D01*
X138349925Y-65227000D01*
X138510075Y-65227000D01*
X138667142Y-65258242D01*
G37*
G36*
X166607142Y-65258242D02*
G01*
X166755101Y-65319529D01*
X166888255Y-65408499D01*
X167001501Y-65521745D01*
X167090471Y-65654899D01*
X167151758Y-65802858D01*
X167183000Y-65959925D01*
X167183000Y-66120075D01*
X167151758Y-66277142D01*
X167090471Y-66425101D01*
X167001501Y-66558255D01*
X166888255Y-66671501D01*
X166755101Y-66760471D01*
X166607142Y-66821758D01*
X166450075Y-66853000D01*
X166289925Y-66853000D01*
X166132858Y-66821758D01*
X165984899Y-66760471D01*
X165851745Y-66671501D01*
X165738499Y-66558255D01*
X165649529Y-66425101D01*
X165588242Y-66277142D01*
X165557000Y-66120075D01*
X165557000Y-65959925D01*
X165588242Y-65802858D01*
X165649529Y-65654899D01*
X165738499Y-65521745D01*
X165851745Y-65408499D01*
X165984899Y-65319529D01*
X166132858Y-65258242D01*
X166289925Y-65227000D01*
X166450075Y-65227000D01*
X166607142Y-65258242D01*
G37*
G36*
X166607142Y-62718242D02*
G01*
X166755101Y-62779529D01*
X166888255Y-62868499D01*
X167001501Y-62981745D01*
X167090471Y-63114899D01*
X167151758Y-63262858D01*
X167183000Y-63419925D01*
X167183000Y-63580075D01*
X167151758Y-63737142D01*
X167090471Y-63885101D01*
X167001501Y-64018255D01*
X166888255Y-64131501D01*
X166755101Y-64220471D01*
X166607142Y-64281758D01*
X166450075Y-64313000D01*
X166289925Y-64313000D01*
X166132858Y-64281758D01*
X165984899Y-64220471D01*
X165851745Y-64131501D01*
X165738499Y-64018255D01*
X165649529Y-63885101D01*
X165588242Y-63737142D01*
X165557000Y-63580075D01*
X165557000Y-63419925D01*
X165588242Y-63262858D01*
X165649529Y-63114899D01*
X165738499Y-62981745D01*
X165851745Y-62868499D01*
X165984899Y-62779529D01*
X166132858Y-62718242D01*
X166289925Y-62687000D01*
X166450075Y-62687000D01*
X166607142Y-62718242D01*
G37*
G36*
X138667142Y-62718242D02*
G01*
X138815101Y-62779529D01*
X138948255Y-62868499D01*
X139061501Y-62981745D01*
X139150471Y-63114899D01*
X139211758Y-63262858D01*
X139243000Y-63419925D01*
X139243000Y-63580075D01*
X139211758Y-63737142D01*
X139150471Y-63885101D01*
X139061501Y-64018255D01*
X138948255Y-64131501D01*
X138815101Y-64220471D01*
X138667142Y-64281758D01*
X138510075Y-64313000D01*
X138349925Y-64313000D01*
X138192858Y-64281758D01*
X138044899Y-64220471D01*
X137911745Y-64131501D01*
X137798499Y-64018255D01*
X137709529Y-63885101D01*
X137648242Y-63737142D01*
X137617000Y-63580075D01*
X137617000Y-63419925D01*
X137648242Y-63262858D01*
X137709529Y-63114899D01*
X137798499Y-62981745D01*
X137911745Y-62868499D01*
X138044899Y-62779529D01*
X138192858Y-62718242D01*
X138349925Y-62687000D01*
X138510075Y-62687000D01*
X138667142Y-62718242D01*
G37*
G36*
X164067142Y-62718242D02*
G01*
X164215101Y-62779529D01*
X164348255Y-62868499D01*
X164461501Y-62981745D01*
X164550471Y-63114899D01*
X164611758Y-63262858D01*
X164643000Y-63419925D01*
X164643000Y-63580075D01*
X164611758Y-63737142D01*
X164550471Y-63885101D01*
X164461501Y-64018255D01*
X164348255Y-64131501D01*
X164215101Y-64220471D01*
X164067142Y-64281758D01*
X163910075Y-64313000D01*
X163749925Y-64313000D01*
X163592858Y-64281758D01*
X163444899Y-64220471D01*
X163311745Y-64131501D01*
X163198499Y-64018255D01*
X163109529Y-63885101D01*
X163048242Y-63737142D01*
X163017000Y-63580075D01*
X163017000Y-63419925D01*
X163048242Y-63262858D01*
X163109529Y-63114899D01*
X163198499Y-62981745D01*
X163311745Y-62868499D01*
X163444899Y-62779529D01*
X163592858Y-62718242D01*
X163749925Y-62687000D01*
X163910075Y-62687000D01*
X164067142Y-62718242D01*
G37*
G36*
X141207142Y-62718242D02*
G01*
X141355101Y-62779529D01*
X141488255Y-62868499D01*
X141601501Y-62981745D01*
X141690471Y-63114899D01*
X141751758Y-63262858D01*
X141783000Y-63419925D01*
X141783000Y-63580075D01*
X141751758Y-63737142D01*
X141690471Y-63885101D01*
X141601501Y-64018255D01*
X141488255Y-64131501D01*
X141355101Y-64220471D01*
X141207142Y-64281758D01*
X141050075Y-64313000D01*
X140889925Y-64313000D01*
X140732858Y-64281758D01*
X140584899Y-64220471D01*
X140451745Y-64131501D01*
X140338499Y-64018255D01*
X140249529Y-63885101D01*
X140188242Y-63737142D01*
X140157000Y-63580075D01*
X140157000Y-63419925D01*
X140188242Y-63262858D01*
X140249529Y-63114899D01*
X140338499Y-62981745D01*
X140451745Y-62868499D01*
X140584899Y-62779529D01*
X140732858Y-62718242D01*
X140889925Y-62687000D01*
X141050075Y-62687000D01*
X141207142Y-62718242D01*
G37*
G36*
X138667142Y-60178242D02*
G01*
X138815101Y-60239529D01*
X138948255Y-60328499D01*
X139061501Y-60441745D01*
X139150471Y-60574899D01*
X139211758Y-60722858D01*
X139243000Y-60879925D01*
X139243000Y-61040075D01*
X139211758Y-61197142D01*
X139150471Y-61345101D01*
X139061501Y-61478255D01*
X138948255Y-61591501D01*
X138815101Y-61680471D01*
X138667142Y-61741758D01*
X138510075Y-61773000D01*
X138349925Y-61773000D01*
X138192858Y-61741758D01*
X138044899Y-61680471D01*
X137911745Y-61591501D01*
X137798499Y-61478255D01*
X137709529Y-61345101D01*
X137648242Y-61197142D01*
X137617000Y-61040075D01*
X137617000Y-60879925D01*
X137648242Y-60722858D01*
X137709529Y-60574899D01*
X137798499Y-60441745D01*
X137911745Y-60328499D01*
X138044899Y-60239529D01*
X138192858Y-60178242D01*
X138349925Y-60147000D01*
X138510075Y-60147000D01*
X138667142Y-60178242D01*
G37*
G36*
X141207142Y-60178242D02*
G01*
X141355101Y-60239529D01*
X141488255Y-60328499D01*
X141601501Y-60441745D01*
X141690471Y-60574899D01*
X141751758Y-60722858D01*
X141783000Y-60879925D01*
X141783000Y-61040075D01*
X141751758Y-61197142D01*
X141690471Y-61345101D01*
X141601501Y-61478255D01*
X141488255Y-61591501D01*
X141355101Y-61680471D01*
X141207142Y-61741758D01*
X141050075Y-61773000D01*
X140889925Y-61773000D01*
X140732858Y-61741758D01*
X140584899Y-61680471D01*
X140451745Y-61591501D01*
X140338499Y-61478255D01*
X140249529Y-61345101D01*
X140188242Y-61197142D01*
X140157000Y-61040075D01*
X140157000Y-60879925D01*
X140188242Y-60722858D01*
X140249529Y-60574899D01*
X140338499Y-60441745D01*
X140451745Y-60328499D01*
X140584899Y-60239529D01*
X140732858Y-60178242D01*
X140889925Y-60147000D01*
X141050075Y-60147000D01*
X141207142Y-60178242D01*
G37*
G36*
X164067142Y-60178242D02*
G01*
X164215101Y-60239529D01*
X164348255Y-60328499D01*
X164461501Y-60441745D01*
X164550471Y-60574899D01*
X164611758Y-60722858D01*
X164643000Y-60879925D01*
X164643000Y-61040075D01*
X164611758Y-61197142D01*
X164550471Y-61345101D01*
X164461501Y-61478255D01*
X164348255Y-61591501D01*
X164215101Y-61680471D01*
X164067142Y-61741758D01*
X163910075Y-61773000D01*
X163749925Y-61773000D01*
X163592858Y-61741758D01*
X163444899Y-61680471D01*
X163311745Y-61591501D01*
X163198499Y-61478255D01*
X163109529Y-61345101D01*
X163048242Y-61197142D01*
X163017000Y-61040075D01*
X163017000Y-60879925D01*
X163048242Y-60722858D01*
X163109529Y-60574899D01*
X163198499Y-60441745D01*
X163311745Y-60328499D01*
X163444899Y-60239529D01*
X163592858Y-60178242D01*
X163749925Y-60147000D01*
X163910075Y-60147000D01*
X164067142Y-60178242D01*
G37*
G36*
X166607142Y-60178242D02*
G01*
X166755101Y-60239529D01*
X166888255Y-60328499D01*
X167001501Y-60441745D01*
X167090471Y-60574899D01*
X167151758Y-60722858D01*
X167183000Y-60879925D01*
X167183000Y-61040075D01*
X167151758Y-61197142D01*
X167090471Y-61345101D01*
X167001501Y-61478255D01*
X166888255Y-61591501D01*
X166755101Y-61680471D01*
X166607142Y-61741758D01*
X166450075Y-61773000D01*
X166289925Y-61773000D01*
X166132858Y-61741758D01*
X165984899Y-61680471D01*
X165851745Y-61591501D01*
X165738499Y-61478255D01*
X165649529Y-61345101D01*
X165588242Y-61197142D01*
X165557000Y-61040075D01*
X165557000Y-60879925D01*
X165588242Y-60722858D01*
X165649529Y-60574899D01*
X165738499Y-60441745D01*
X165851745Y-60328499D01*
X165984899Y-60239529D01*
X166132858Y-60178242D01*
X166289925Y-60147000D01*
X166450075Y-60147000D01*
X166607142Y-60178242D01*
G37*
G36*
X141207142Y-57638242D02*
G01*
X141355101Y-57699529D01*
X141488255Y-57788499D01*
X141601501Y-57901745D01*
X141690471Y-58034899D01*
X141751758Y-58182858D01*
X141783000Y-58339925D01*
X141783000Y-58500075D01*
X141751758Y-58657142D01*
X141690471Y-58805101D01*
X141601501Y-58938255D01*
X141488255Y-59051501D01*
X141355101Y-59140471D01*
X141207142Y-59201758D01*
X141050075Y-59233000D01*
X140889925Y-59233000D01*
X140732858Y-59201758D01*
X140584899Y-59140471D01*
X140451745Y-59051501D01*
X140338499Y-58938255D01*
X140249529Y-58805101D01*
X140188242Y-58657142D01*
X140157000Y-58500075D01*
X140157000Y-58339925D01*
X140188242Y-58182858D01*
X140249529Y-58034899D01*
X140338499Y-57901745D01*
X140451745Y-57788499D01*
X140584899Y-57699529D01*
X140732858Y-57638242D01*
X140889925Y-57607000D01*
X141050075Y-57607000D01*
X141207142Y-57638242D01*
G37*
G36*
X138667142Y-57638242D02*
G01*
X138815101Y-57699529D01*
X138948255Y-57788499D01*
X139061501Y-57901745D01*
X139150471Y-58034899D01*
X139211758Y-58182858D01*
X139243000Y-58339925D01*
X139243000Y-58500075D01*
X139211758Y-58657142D01*
X139150471Y-58805101D01*
X139061501Y-58938255D01*
X138948255Y-59051501D01*
X138815101Y-59140471D01*
X138667142Y-59201758D01*
X138510075Y-59233000D01*
X138349925Y-59233000D01*
X138192858Y-59201758D01*
X138044899Y-59140471D01*
X137911745Y-59051501D01*
X137798499Y-58938255D01*
X137709529Y-58805101D01*
X137648242Y-58657142D01*
X137617000Y-58500075D01*
X137617000Y-58339925D01*
X137648242Y-58182858D01*
X137709529Y-58034899D01*
X137798499Y-57901745D01*
X137911745Y-57788499D01*
X138044899Y-57699529D01*
X138192858Y-57638242D01*
X138349925Y-57607000D01*
X138510075Y-57607000D01*
X138667142Y-57638242D01*
G37*
G36*
X164067142Y-57638242D02*
G01*
X164215101Y-57699529D01*
X164348255Y-57788499D01*
X164461501Y-57901745D01*
X164550471Y-58034899D01*
X164611758Y-58182858D01*
X164643000Y-58339925D01*
X164643000Y-58500075D01*
X164611758Y-58657142D01*
X164550471Y-58805101D01*
X164461501Y-58938255D01*
X164348255Y-59051501D01*
X164215101Y-59140471D01*
X164067142Y-59201758D01*
X163910075Y-59233000D01*
X163749925Y-59233000D01*
X163592858Y-59201758D01*
X163444899Y-59140471D01*
X163311745Y-59051501D01*
X163198499Y-58938255D01*
X163109529Y-58805101D01*
X163048242Y-58657142D01*
X163017000Y-58500075D01*
X163017000Y-58339925D01*
X163048242Y-58182858D01*
X163109529Y-58034899D01*
X163198499Y-57901745D01*
X163311745Y-57788499D01*
X163444899Y-57699529D01*
X163592858Y-57638242D01*
X163749925Y-57607000D01*
X163910075Y-57607000D01*
X164067142Y-57638242D01*
G37*
G36*
X166607142Y-57638242D02*
G01*
X166755101Y-57699529D01*
X166888255Y-57788499D01*
X167001501Y-57901745D01*
X167090471Y-58034899D01*
X167151758Y-58182858D01*
X167183000Y-58339925D01*
X167183000Y-58500075D01*
X167151758Y-58657142D01*
X167090471Y-58805101D01*
X167001501Y-58938255D01*
X166888255Y-59051501D01*
X166755101Y-59140471D01*
X166607142Y-59201758D01*
X166450075Y-59233000D01*
X166289925Y-59233000D01*
X166132858Y-59201758D01*
X165984899Y-59140471D01*
X165851745Y-59051501D01*
X165738499Y-58938255D01*
X165649529Y-58805101D01*
X165588242Y-58657142D01*
X165557000Y-58500075D01*
X165557000Y-58339925D01*
X165588242Y-58182858D01*
X165649529Y-58034899D01*
X165738499Y-57901745D01*
X165851745Y-57788499D01*
X165984899Y-57699529D01*
X166132858Y-57638242D01*
X166289925Y-57607000D01*
X166450075Y-57607000D01*
X166607142Y-57638242D01*
G37*
G36*
X181666626Y-55502037D02*
G01*
X181836465Y-55553557D01*
X181836467Y-55553558D01*
X181992989Y-55637221D01*
X182130186Y-55749814D01*
X182213448Y-55851271D01*
X182242778Y-55887009D01*
X182326443Y-56043534D01*
X182377963Y-56213373D01*
X182391000Y-56345742D01*
X182391000Y-56684257D01*
X182377963Y-56816626D01*
X182326443Y-56986466D01*
X182242778Y-57142991D01*
X182213448Y-57178729D01*
X182130186Y-57280186D01*
X182035250Y-57358097D01*
X181992991Y-57392778D01*
X181836466Y-57476443D01*
X181666627Y-57527963D01*
X181490000Y-57545359D01*
X181313374Y-57527963D01*
X181143535Y-57476443D01*
X180987010Y-57392778D01*
X180849815Y-57280185D01*
X180737222Y-57142991D01*
X180653557Y-56986466D01*
X180602037Y-56816627D01*
X180589000Y-56684258D01*
X180589000Y-56345743D01*
X180602037Y-56213374D01*
X180653557Y-56043535D01*
X180653559Y-56043532D01*
X180737221Y-55887011D01*
X180849814Y-55749814D01*
X180951271Y-55666552D01*
X180987009Y-55637222D01*
X181143534Y-55553557D01*
X181313373Y-55502037D01*
X181490000Y-55484641D01*
X181666626Y-55502037D01*
G37*
G36*
X176666626Y-55502037D02*
G01*
X176836465Y-55553557D01*
X176836467Y-55553558D01*
X176992989Y-55637221D01*
X177130186Y-55749814D01*
X177213448Y-55851271D01*
X177242778Y-55887009D01*
X177326443Y-56043534D01*
X177377963Y-56213373D01*
X177391000Y-56345742D01*
X177391000Y-56684257D01*
X177377963Y-56816626D01*
X177326443Y-56986466D01*
X177242778Y-57142991D01*
X177213448Y-57178729D01*
X177130186Y-57280186D01*
X177035250Y-57358097D01*
X176992991Y-57392778D01*
X176836466Y-57476443D01*
X176666627Y-57527963D01*
X176490000Y-57545359D01*
X176313374Y-57527963D01*
X176143535Y-57476443D01*
X175987010Y-57392778D01*
X175849815Y-57280185D01*
X175737222Y-57142991D01*
X175653557Y-56986466D01*
X175602037Y-56816627D01*
X175589000Y-56684258D01*
X175589000Y-56345743D01*
X175602037Y-56213374D01*
X175653557Y-56043535D01*
X175653559Y-56043532D01*
X175737221Y-55887011D01*
X175849814Y-55749814D01*
X175951271Y-55666552D01*
X175987009Y-55637222D01*
X176143534Y-55553557D01*
X176313373Y-55502037D01*
X176490000Y-55484641D01*
X176666626Y-55502037D01*
G37*
G36*
X179166626Y-55502037D02*
G01*
X179336465Y-55553557D01*
X179336467Y-55553558D01*
X179492989Y-55637221D01*
X179630186Y-55749814D01*
X179713448Y-55851271D01*
X179742778Y-55887009D01*
X179826443Y-56043534D01*
X179877963Y-56213373D01*
X179891000Y-56345742D01*
X179891000Y-56684257D01*
X179877963Y-56816626D01*
X179826443Y-56986466D01*
X179742778Y-57142991D01*
X179713448Y-57178729D01*
X179630186Y-57280186D01*
X179535250Y-57358097D01*
X179492991Y-57392778D01*
X179336466Y-57476443D01*
X179166627Y-57527963D01*
X178990000Y-57545359D01*
X178813374Y-57527963D01*
X178643535Y-57476443D01*
X178487010Y-57392778D01*
X178349815Y-57280185D01*
X178237222Y-57142991D01*
X178153557Y-56986466D01*
X178102037Y-56816627D01*
X178089000Y-56684258D01*
X178089000Y-56345743D01*
X178102037Y-56213374D01*
X178153557Y-56043535D01*
X178153559Y-56043532D01*
X178237221Y-55887011D01*
X178349814Y-55749814D01*
X178451271Y-55666552D01*
X178487009Y-55637222D01*
X178643534Y-55553557D01*
X178813373Y-55502037D01*
X178990000Y-55484641D01*
X179166626Y-55502037D01*
G37*
G36*
X174748600Y-55492989D02*
G01*
X174781652Y-55503015D01*
X174812103Y-55519292D01*
X174838799Y-55541201D01*
X174860708Y-55567897D01*
X174876985Y-55598348D01*
X174887011Y-55631400D01*
X174891000Y-55671903D01*
X174891000Y-57358097D01*
X174887011Y-57398600D01*
X174876985Y-57431652D01*
X174860708Y-57462103D01*
X174838799Y-57488799D01*
X174812103Y-57510708D01*
X174781652Y-57526985D01*
X174748600Y-57537011D01*
X174708097Y-57541000D01*
X173271903Y-57541000D01*
X173231400Y-57537011D01*
X173198348Y-57526985D01*
X173167897Y-57510708D01*
X173141201Y-57488799D01*
X173119292Y-57462103D01*
X173103015Y-57431652D01*
X173092989Y-57398600D01*
X173089000Y-57358097D01*
X173089000Y-55671903D01*
X173092989Y-55631400D01*
X173103015Y-55598348D01*
X173119292Y-55567897D01*
X173141201Y-55541201D01*
X173167897Y-55519292D01*
X173198348Y-55503015D01*
X173231400Y-55492989D01*
X173271903Y-55489000D01*
X174708097Y-55489000D01*
X174748600Y-55492989D01*
G37*
G36*
X164067142Y-55098242D02*
G01*
X164215101Y-55159529D01*
X164348255Y-55248499D01*
X164461501Y-55361745D01*
X164550471Y-55494899D01*
X164611758Y-55642858D01*
X164643000Y-55799925D01*
X164643000Y-55960075D01*
X164611758Y-56117142D01*
X164550471Y-56265101D01*
X164461501Y-56398255D01*
X164348255Y-56511501D01*
X164215101Y-56600471D01*
X164067142Y-56661758D01*
X163910075Y-56693000D01*
X163749925Y-56693000D01*
X163592858Y-56661758D01*
X163444899Y-56600471D01*
X163311745Y-56511501D01*
X163198499Y-56398255D01*
X163109529Y-56265101D01*
X163048242Y-56117142D01*
X163017000Y-55960075D01*
X163017000Y-55799925D01*
X163048242Y-55642858D01*
X163109529Y-55494899D01*
X163198499Y-55361745D01*
X163311745Y-55248499D01*
X163444899Y-55159529D01*
X163592858Y-55098242D01*
X163749925Y-55067000D01*
X163910075Y-55067000D01*
X164067142Y-55098242D01*
G37*
G36*
X166607142Y-55098242D02*
G01*
X166755101Y-55159529D01*
X166888255Y-55248499D01*
X167001501Y-55361745D01*
X167090471Y-55494899D01*
X167151758Y-55642858D01*
X167183000Y-55799925D01*
X167183000Y-55960075D01*
X167151758Y-56117142D01*
X167090471Y-56265101D01*
X167001501Y-56398255D01*
X166888255Y-56511501D01*
X166755101Y-56600471D01*
X166607142Y-56661758D01*
X166450075Y-56693000D01*
X166289925Y-56693000D01*
X166132858Y-56661758D01*
X165984899Y-56600471D01*
X165851745Y-56511501D01*
X165738499Y-56398255D01*
X165649529Y-56265101D01*
X165588242Y-56117142D01*
X165557000Y-55960075D01*
X165557000Y-55799925D01*
X165588242Y-55642858D01*
X165649529Y-55494899D01*
X165738499Y-55361745D01*
X165851745Y-55248499D01*
X165984899Y-55159529D01*
X166132858Y-55098242D01*
X166289925Y-55067000D01*
X166450075Y-55067000D01*
X166607142Y-55098242D01*
G37*
G36*
X138667142Y-55098242D02*
G01*
X138815101Y-55159529D01*
X138948255Y-55248499D01*
X139061501Y-55361745D01*
X139150471Y-55494899D01*
X139211758Y-55642858D01*
X139243000Y-55799925D01*
X139243000Y-55960075D01*
X139211758Y-56117142D01*
X139150471Y-56265101D01*
X139061501Y-56398255D01*
X138948255Y-56511501D01*
X138815101Y-56600471D01*
X138667142Y-56661758D01*
X138510075Y-56693000D01*
X138349925Y-56693000D01*
X138192858Y-56661758D01*
X138044899Y-56600471D01*
X137911745Y-56511501D01*
X137798499Y-56398255D01*
X137709529Y-56265101D01*
X137648242Y-56117142D01*
X137617000Y-55960075D01*
X137617000Y-55799925D01*
X137648242Y-55642858D01*
X137709529Y-55494899D01*
X137798499Y-55361745D01*
X137911745Y-55248499D01*
X138044899Y-55159529D01*
X138192858Y-55098242D01*
X138349925Y-55067000D01*
X138510075Y-55067000D01*
X138667142Y-55098242D01*
G37*
G36*
X141207142Y-55098242D02*
G01*
X141355101Y-55159529D01*
X141488255Y-55248499D01*
X141601501Y-55361745D01*
X141690471Y-55494899D01*
X141751758Y-55642858D01*
X141783000Y-55799925D01*
X141783000Y-55960075D01*
X141751758Y-56117142D01*
X141690471Y-56265101D01*
X141601501Y-56398255D01*
X141488255Y-56511501D01*
X141355101Y-56600471D01*
X141207142Y-56661758D01*
X141050075Y-56693000D01*
X140889925Y-56693000D01*
X140732858Y-56661758D01*
X140584899Y-56600471D01*
X140451745Y-56511501D01*
X140338499Y-56398255D01*
X140249529Y-56265101D01*
X140188242Y-56117142D01*
X140157000Y-55960075D01*
X140157000Y-55799925D01*
X140188242Y-55642858D01*
X140249529Y-55494899D01*
X140338499Y-55361745D01*
X140451745Y-55248499D01*
X140584899Y-55159529D01*
X140732858Y-55098242D01*
X140889925Y-55067000D01*
X141050075Y-55067000D01*
X141207142Y-55098242D01*
G37*
G36*
X138667142Y-52558242D02*
G01*
X138815101Y-52619529D01*
X138948255Y-52708499D01*
X139061501Y-52821745D01*
X139150471Y-52954899D01*
X139211758Y-53102858D01*
X139243000Y-53259925D01*
X139243000Y-53420075D01*
X139211758Y-53577142D01*
X139150471Y-53725101D01*
X139061501Y-53858255D01*
X138948255Y-53971501D01*
X138815101Y-54060471D01*
X138667142Y-54121758D01*
X138510075Y-54153000D01*
X138349925Y-54153000D01*
X138192858Y-54121758D01*
X138044899Y-54060471D01*
X137911745Y-53971501D01*
X137798499Y-53858255D01*
X137709529Y-53725101D01*
X137648242Y-53577142D01*
X137617000Y-53420075D01*
X137617000Y-53259925D01*
X137648242Y-53102858D01*
X137709529Y-52954899D01*
X137798499Y-52821745D01*
X137911745Y-52708499D01*
X138044899Y-52619529D01*
X138192858Y-52558242D01*
X138349925Y-52527000D01*
X138510075Y-52527000D01*
X138667142Y-52558242D01*
G37*
G36*
X141207142Y-52558242D02*
G01*
X141355101Y-52619529D01*
X141488255Y-52708499D01*
X141601501Y-52821745D01*
X141690471Y-52954899D01*
X141751758Y-53102858D01*
X141783000Y-53259925D01*
X141783000Y-53420075D01*
X141751758Y-53577142D01*
X141690471Y-53725101D01*
X141601501Y-53858255D01*
X141488255Y-53971501D01*
X141355101Y-54060471D01*
X141207142Y-54121758D01*
X141050075Y-54153000D01*
X140889925Y-54153000D01*
X140732858Y-54121758D01*
X140584899Y-54060471D01*
X140451745Y-53971501D01*
X140338499Y-53858255D01*
X140249529Y-53725101D01*
X140188242Y-53577142D01*
X140157000Y-53420075D01*
X140157000Y-53259925D01*
X140188242Y-53102858D01*
X140249529Y-52954899D01*
X140338499Y-52821745D01*
X140451745Y-52708499D01*
X140584899Y-52619529D01*
X140732858Y-52558242D01*
X140889925Y-52527000D01*
X141050075Y-52527000D01*
X141207142Y-52558242D01*
G37*
G36*
X164067142Y-52558242D02*
G01*
X164215101Y-52619529D01*
X164348255Y-52708499D01*
X164461501Y-52821745D01*
X164550471Y-52954899D01*
X164611758Y-53102858D01*
X164643000Y-53259925D01*
X164643000Y-53420075D01*
X164611758Y-53577142D01*
X164550471Y-53725101D01*
X164461501Y-53858255D01*
X164348255Y-53971501D01*
X164215101Y-54060471D01*
X164067142Y-54121758D01*
X163910075Y-54153000D01*
X163749925Y-54153000D01*
X163592858Y-54121758D01*
X163444899Y-54060471D01*
X163311745Y-53971501D01*
X163198499Y-53858255D01*
X163109529Y-53725101D01*
X163048242Y-53577142D01*
X163017000Y-53420075D01*
X163017000Y-53259925D01*
X163048242Y-53102858D01*
X163109529Y-52954899D01*
X163198499Y-52821745D01*
X163311745Y-52708499D01*
X163444899Y-52619529D01*
X163592858Y-52558242D01*
X163749925Y-52527000D01*
X163910075Y-52527000D01*
X164067142Y-52558242D01*
G37*
G36*
X166607142Y-52558242D02*
G01*
X166755101Y-52619529D01*
X166888255Y-52708499D01*
X167001501Y-52821745D01*
X167090471Y-52954899D01*
X167151758Y-53102858D01*
X167183000Y-53259925D01*
X167183000Y-53420075D01*
X167151758Y-53577142D01*
X167090471Y-53725101D01*
X167001501Y-53858255D01*
X166888255Y-53971501D01*
X166755101Y-54060471D01*
X166607142Y-54121758D01*
X166450075Y-54153000D01*
X166289925Y-54153000D01*
X166132858Y-54121758D01*
X165984899Y-54060471D01*
X165851745Y-53971501D01*
X165738499Y-53858255D01*
X165649529Y-53725101D01*
X165588242Y-53577142D01*
X165557000Y-53420075D01*
X165557000Y-53259925D01*
X165588242Y-53102858D01*
X165649529Y-52954899D01*
X165738499Y-52821745D01*
X165851745Y-52708499D01*
X165984899Y-52619529D01*
X166132858Y-52558242D01*
X166289925Y-52527000D01*
X166450075Y-52527000D01*
X166607142Y-52558242D01*
G37*
G36*
X182252007Y-47413582D02*
G01*
X182605848Y-47560148D01*
X182652565Y-47579499D01*
X183013056Y-47820371D01*
X183319629Y-48126944D01*
X183467829Y-48348742D01*
X183560502Y-48487437D01*
X183726418Y-48887993D01*
X183811000Y-49313219D01*
X183811000Y-49746781D01*
X183726418Y-50172007D01*
X183688034Y-50264674D01*
X183560501Y-50572565D01*
X183319629Y-50933056D01*
X183013056Y-51239629D01*
X182652565Y-51480501D01*
X182652564Y-51480502D01*
X182652563Y-51480502D01*
X182252007Y-51646418D01*
X181826781Y-51731000D01*
X181393219Y-51731000D01*
X180967993Y-51646418D01*
X180567437Y-51480502D01*
X180567436Y-51480502D01*
X180567435Y-51480501D01*
X180206944Y-51239629D01*
X179900371Y-50933056D01*
X179659499Y-50572565D01*
X179531966Y-50264674D01*
X179493582Y-50172007D01*
X179409000Y-49746781D01*
X179409000Y-49313219D01*
X179493582Y-48887993D01*
X179659498Y-48487437D01*
X179752171Y-48348742D01*
X179900371Y-48126944D01*
X180206944Y-47820371D01*
X180567435Y-47579499D01*
X180614152Y-47560148D01*
X180967993Y-47413582D01*
X181393219Y-47329000D01*
X181826781Y-47329000D01*
X182252007Y-47413582D01*
G37*
G36*
X83192007Y-47413582D02*
G01*
X83545848Y-47560148D01*
X83592565Y-47579499D01*
X83953056Y-47820371D01*
X84259629Y-48126944D01*
X84407829Y-48348742D01*
X84500502Y-48487437D01*
X84666418Y-48887993D01*
X84751000Y-49313219D01*
X84751000Y-49746781D01*
X84666418Y-50172007D01*
X84628034Y-50264674D01*
X84500501Y-50572565D01*
X84259629Y-50933056D01*
X83953056Y-51239629D01*
X83592565Y-51480501D01*
X83592564Y-51480502D01*
X83592563Y-51480502D01*
X83192007Y-51646418D01*
X82766781Y-51731000D01*
X82333219Y-51731000D01*
X81907993Y-51646418D01*
X81507437Y-51480502D01*
X81507436Y-51480502D01*
X81507435Y-51480501D01*
X81146944Y-51239629D01*
X80840371Y-50933056D01*
X80599499Y-50572565D01*
X80471966Y-50264674D01*
X80433582Y-50172007D01*
X80349000Y-49746781D01*
X80349000Y-49313219D01*
X80433582Y-48887993D01*
X80599498Y-48487437D01*
X80692171Y-48348742D01*
X80840371Y-48126944D01*
X81146944Y-47820371D01*
X81507435Y-47579499D01*
X81554152Y-47560148D01*
X81907993Y-47413582D01*
X82333219Y-47329000D01*
X82766781Y-47329000D01*
X83192007Y-47413582D01*
G37*
G36*
X132722007Y-47413582D02*
G01*
X133075848Y-47560148D01*
X133122565Y-47579499D01*
X133483056Y-47820371D01*
X133789629Y-48126944D01*
X133937829Y-48348742D01*
X134030502Y-48487437D01*
X134196418Y-48887993D01*
X134281000Y-49313219D01*
X134281000Y-49746781D01*
X134196418Y-50172007D01*
X134158034Y-50264674D01*
X134030501Y-50572565D01*
X133789629Y-50933056D01*
X133483056Y-51239629D01*
X133122565Y-51480501D01*
X133122564Y-51480502D01*
X133122563Y-51480502D01*
X132722007Y-51646418D01*
X132296781Y-51731000D01*
X131863219Y-51731000D01*
X131437993Y-51646418D01*
X131037437Y-51480502D01*
X131037436Y-51480502D01*
X131037435Y-51480501D01*
X130676944Y-51239629D01*
X130370371Y-50933056D01*
X130129499Y-50572565D01*
X130001966Y-50264674D01*
X129963582Y-50172007D01*
X129879000Y-49746781D01*
X129879000Y-49313219D01*
X129963582Y-48887993D01*
X130129498Y-48487437D01*
X130222171Y-48348742D01*
X130370371Y-48126944D01*
X130676944Y-47820371D01*
X131037435Y-47579499D01*
X131084152Y-47560148D01*
X131437993Y-47413582D01*
X131863219Y-47329000D01*
X132296781Y-47329000D01*
X132722007Y-47413582D01*
G37*
G36*
X112661000Y-51701000D02*
G01*
X110859000Y-51701000D01*
X110859000Y-49899000D01*
X112661000Y-49899000D01*
X112661000Y-51701000D01*
G37*
G36*
X105041000Y-51701000D02*
G01*
X103239000Y-51701000D01*
X103239000Y-49899000D01*
X105041000Y-49899000D01*
X105041000Y-51701000D01*
G37*
G36*
X96822585Y-48008802D02*
G01*
X96972410Y-48038604D01*
X97254674Y-48155521D01*
X97508705Y-48325259D01*
X97724741Y-48541295D01*
X97894479Y-48795326D01*
X98003470Y-49058456D01*
X98011396Y-49077591D01*
X98071000Y-49377239D01*
X98071000Y-49682761D01*
X98041198Y-49832585D01*
X98011396Y-49982410D01*
X97894479Y-50264674D01*
X97724741Y-50518705D01*
X97508705Y-50734741D01*
X97254674Y-50904479D01*
X96972410Y-51021396D01*
X96822585Y-51051198D01*
X96672761Y-51081000D01*
X96367239Y-51081000D01*
X96217415Y-51051198D01*
X96067590Y-51021396D01*
X95785326Y-50904479D01*
X95531295Y-50734741D01*
X95315259Y-50518705D01*
X95145521Y-50264674D01*
X95028604Y-49982410D01*
X94998802Y-49832585D01*
X94969000Y-49682761D01*
X94969000Y-49377239D01*
X95028604Y-49077591D01*
X95036530Y-49058456D01*
X95145521Y-48795326D01*
X95315259Y-48541295D01*
X95531295Y-48325259D01*
X95785326Y-48155521D01*
X96067590Y-48038604D01*
X96217415Y-48008802D01*
X96367239Y-47979000D01*
X96672761Y-47979000D01*
X96822585Y-48008802D01*
G37*
G36*
X124762585Y-48008802D02*
G01*
X124912410Y-48038604D01*
X125194674Y-48155521D01*
X125448705Y-48325259D01*
X125664741Y-48541295D01*
X125834479Y-48795326D01*
X125943470Y-49058456D01*
X125951396Y-49077591D01*
X126011000Y-49377239D01*
X126011000Y-49682761D01*
X125981198Y-49832585D01*
X125951396Y-49982410D01*
X125834479Y-50264674D01*
X125664741Y-50518705D01*
X125448705Y-50734741D01*
X125194674Y-50904479D01*
X124912410Y-51021396D01*
X124762585Y-51051198D01*
X124612761Y-51081000D01*
X124307239Y-51081000D01*
X124157415Y-51051198D01*
X124007590Y-51021396D01*
X123725326Y-50904479D01*
X123471295Y-50734741D01*
X123255259Y-50518705D01*
X123085521Y-50264674D01*
X122968604Y-49982410D01*
X122938802Y-49832585D01*
X122909000Y-49682761D01*
X122909000Y-49377239D01*
X122968604Y-49077591D01*
X122976530Y-49058456D01*
X123085521Y-48795326D01*
X123255259Y-48541295D01*
X123471295Y-48325259D01*
X123725326Y-48155521D01*
X124007590Y-48038604D01*
X124157415Y-48008802D01*
X124307239Y-47979000D01*
X124612761Y-47979000D01*
X124762585Y-48008802D01*
G37*
G36*
X120931000Y-51081000D02*
G01*
X117829000Y-51081000D01*
X117829000Y-47979000D01*
X120931000Y-47979000D01*
X120931000Y-51081000D01*
G37*
G36*
X92991000Y-51081000D02*
G01*
X89889000Y-51081000D01*
X89889000Y-47979000D01*
X92991000Y-47979000D01*
X92991000Y-51081000D01*
G37*
G36*
X111873512Y-47363927D02*
G01*
X112022812Y-47393624D01*
X112186784Y-47461544D01*
X112334354Y-47560147D01*
X112459853Y-47685646D01*
X112558456Y-47833216D01*
X112626376Y-47997188D01*
X112661000Y-48171259D01*
X112661000Y-48348741D01*
X112626376Y-48522812D01*
X112558456Y-48686784D01*
X112459853Y-48834354D01*
X112334354Y-48959853D01*
X112186784Y-49058456D01*
X112022812Y-49126376D01*
X111873512Y-49156073D01*
X111848742Y-49161000D01*
X111671258Y-49161000D01*
X111646488Y-49156073D01*
X111497188Y-49126376D01*
X111333216Y-49058456D01*
X111185646Y-48959853D01*
X111060147Y-48834354D01*
X110961544Y-48686784D01*
X110893624Y-48522812D01*
X110859000Y-48348741D01*
X110859000Y-48171259D01*
X110893624Y-47997188D01*
X110961544Y-47833216D01*
X111060147Y-47685646D01*
X111185646Y-47560147D01*
X111333216Y-47461544D01*
X111497188Y-47393624D01*
X111646488Y-47363927D01*
X111671258Y-47359000D01*
X111848742Y-47359000D01*
X111873512Y-47363927D01*
G37*
G36*
X104253512Y-47363927D02*
G01*
X104402812Y-47393624D01*
X104566784Y-47461544D01*
X104714354Y-47560147D01*
X104839853Y-47685646D01*
X104938456Y-47833216D01*
X105006376Y-47997188D01*
X105041000Y-48171259D01*
X105041000Y-48348741D01*
X105006376Y-48522812D01*
X104938456Y-48686784D01*
X104839853Y-48834354D01*
X104714354Y-48959853D01*
X104566784Y-49058456D01*
X104402812Y-49126376D01*
X104253512Y-49156073D01*
X104228742Y-49161000D01*
X104051258Y-49161000D01*
X104026488Y-49156073D01*
X103877188Y-49126376D01*
X103713216Y-49058456D01*
X103565646Y-48959853D01*
X103440147Y-48834354D01*
X103341544Y-48686784D01*
X103273624Y-48522812D01*
X103239000Y-48348741D01*
X103239000Y-48171259D01*
X103273624Y-47997188D01*
X103341544Y-47833216D01*
X103440147Y-47685646D01*
X103565646Y-47560147D01*
X103713216Y-47461544D01*
X103877188Y-47393624D01*
X104026488Y-47363927D01*
X104051258Y-47359000D01*
X104228742Y-47359000D01*
X104253512Y-47363927D01*
G37*
M02*
